<?xml version="1.0" standalone="no"?>
<!DOCTYPE svg PUBLIC "-//W3C//DTD SVG 20010904//EN"
 "http://www.w3.org/TR/2001/REC-SVG-20010904/DTD/svg10.dtd">
<svg version="1.0" xmlns="http://www.w3.org/2000/svg"
 width="1600.000000pt" height="913.000000pt" viewBox="0 0 1600.000000 913.000000"
 preserveAspectRatio="xMidYMid meet">

<g transform="translate(0.000000,913.000000) scale(0.100000,-0.100000)"
fill="#000000" stroke="none">
<path d="M2060 9100 c0 -12 8 -12 35 0 18 8 17 9 -7 9 -16 1 -28 -3 -28 -9z"/>
<path d="M2138 9103 c6 -2 18 -2 25 0 6 3 1 5 -13 5 -14 0 -19 -2 -12 -5z"/>
<path d="M2348 9103 c6 -2 18 -2 25 0 6 3 1 5 -13 5 -14 0 -19 -2 -12 -5z"/>
<path d="M2478 9103 c7 -3 16 -2 19 1 4 3 -2 6 -13 5 -11 0 -14 -3 -6 -6z"/>
<path d="M2518 9103 c6 -2 18 -2 25 0 6 3 1 5 -13 5 -14 0 -19 -2 -12 -5z"/>
<path d="M2588 9103 c7 -3 16 -2 19 1 4 3 -2 6 -13 5 -11 0 -14 -3 -6 -6z"/>
<path d="M2758 9103 c6 -2 18 -2 25 0 6 3 1 5 -13 5 -14 0 -19 -2 -12 -5z"/>
<path d="M2818 9103 c7 -3 16 -2 19 1 4 3 -2 6 -13 5 -11 0 -14 -3 -6 -6z"/>
<path d="M2928 9103 c6 -2 18 -2 25 0 6 3 1 5 -13 5 -14 0 -19 -2 -12 -5z"/>
<path d="M3158 9103 c6 -2 18 -2 25 0 6 3 1 5 -13 5 -14 0 -19 -2 -12 -5z"/>
<path d="M3238 9103 c6 -2 18 -2 25 0 6 3 1 5 -13 5 -14 0 -19 -2 -12 -5z"/>
<path d="M3408 9103 c6 -2 18 -2 25 0 6 3 1 5 -13 5 -14 0 -19 -2 -12 -5z"/>
<path d="M3738 9103 c6 -2 18 -2 25 0 6 3 1 5 -13 5 -14 0 -19 -2 -12 -5z"/>
<path d="M3828 9103 c7 -3 16 -2 19 1 4 3 -2 6 -13 5 -11 0 -14 -3 -6 -6z"/>
<path d="M4528 9103 c6 -2 18 -2 25 0 6 3 1 5 -13 5 -14 0 -19 -2 -12 -5z"/>
<path d="M4738 9103 c7 -3 16 -2 19 1 4 3 -2 6 -13 5 -11 0 -14 -3 -6 -6z"/>
<path d="M4908 9103 c6 -2 18 -2 25 0 6 3 1 5 -13 5 -14 0 -19 -2 -12 -5z"/>
<path d="M4978 9103 c7 -3 16 -2 19 1 4 3 -2 6 -13 5 -11 0 -14 -3 -6 -6z"/>
<path d="M5150 9100 c8 -5 13 -10 10 -10 -3 0 -702 -1 -1555 -3 l-1550 -2 -60
-22 c-33 -12 -64 -19 -69 -16 -5 4 -6 1 -2 -5 4 -7 3 -12 -3 -12 -5 0 -34 -23
-65 -51 -68 -62 -112 -147 -126 -244 -5 -38 -10 -283 -10 -542 l0 -473 -821 0
-821 0 -34 -34 -34 -34 0 -1156 0 -1156 29 -32 29 -33 826 -3 826 -2 0 -749 0
-749 -22 -6 c-13 -3 -239 -6 -504 -6 l-481 0 -21 -23 -22 -23 0 -960 0 -961
23 -21 c23 -22 24 -22 503 -22 263 0 489 -3 501 -6 l22 -6 4 -522 c3 -524 8
-596 40 -596 7 0 1116 0 2465 0 l2452 0 0 -50 0 -50 -3127 2 -3128 3 0 35 c0
33 -2 35 -40 42 -22 3 -52 7 -67 7 -26 1 -28 -1 -28 -43 l0 -44 137 -46 c322
-106 615 -157 1083 -186 723 -46 10628 -53 12585 -9 720 16 1061 61 1468 195
l137 46 0 44 0 44 -47 0 c-27 0 -64 -3 -83 -6 -33 -5 -36 -8 -35 -40 1 -27 -3
-36 -19 -39 -12 -3 -1409 -4 -3106 -3 l-3085 3 1 45 0 45 2451 0 c1348 0 2454
3 2458 7 4 4 13 4 20 2 7 -3 16 -1 20 5 4 7 0 8 -11 4 -15 -5 -16 -2 -9 23 5
16 10 545 12 1177 l3 1147 826 0 c742 0 827 2 849 16 14 9 25 22 25 29 0 7 7
15 15 19 13 5 15 122 15 976 0 1021 2 984 -44 1038 l-19 22 -802 0 c-442 0
-817 3 -834 6 l-31 7 0 1816 c0 1985 3 1878 -57 1980 -58 99 -165 170 -288
190 -38 6 -1642 10 -4345 10 -2357 0 -4313 1 -4348 1 -35 0 -61 4 -58 8 2 4
-5 9 -17 9 -17 2 -19 0 -7 -7z m-2780 -875 l0 -55 -40 0 -40 0 0 55 0 55 40 0
40 0 0 -55z m110 19 l0 -35 -42 3 c-32 2 -44 8 -46 21 -7 35 6 47 48 47 39 0
40 -1 40 -36z m182 -21 c37 -33 10 -93 -44 -93 -27 0 -28 1 -28 55 0 53 1 55
27 55 14 0 35 -7 45 -17z m196 -8 c-5 -25 5 -34 17 -15 3 6 10 10 16 10 5 0 4
-9 -3 -19 -10 -17 -9 -23 6 -40 16 -18 17 -21 4 -21 -9 0 -18 7 -22 15 -3 8
-10 15 -15 15 -6 0 -8 -7 -4 -16 4 -11 2 -15 -7 -12 -9 3 -13 20 -13 51 1 59
1 57 14 57 7 0 9 -10 7 -25z m136 9 c36 -36 9 -94 -45 -94 -29 0 -29 1 -29 55
0 54 0 55 29 55 16 0 37 -7 45 -16z m216 1 c0 -9 6 -15 13 -14 31 4 37 -2 37
-41 0 -22 -4 -40 -10 -40 -5 0 -10 16 -10 36 0 45 -24 42 -28 -4 -5 -53 -22
-36 -22 23 0 30 5 55 10 55 6 0 10 -7 10 -15z m490 -5 c0 -6 -30 -10 -70 -10
-40 0 -70 4 -70 10 0 6 30 10 70 10 40 0 70 -4 70 -10z m-940 -56 c0 -34 -1
-35 -32 -32 -42 4 -51 34 -14 44 35 8 33 26 -1 19 -26 -6 -27 -6 -9 9 29 23
56 4 56 -40z m56 34 c-9 -5 -16 -22 -16 -38 0 -17 -4 -30 -10 -30 -5 0 -10 18
-10 39 0 29 4 41 18 44 25 5 37 -4 18 -15z m274 -30 c0 -38 -1 -39 -32 -36
-39 4 -44 28 -10 43 27 12 29 29 2 20 -11 -3 -20 -2 -20 4 0 11 29 19 48 13 7
-2 12 -21 12 -44z m90 26 c0 -4 -11 -3 -25 0 -14 4 -25 2 -25 -3 0 -5 12 -12
26 -15 17 -5 24 -12 22 -24 -4 -21 -46 -28 -62 -11 -8 9 -6 10 11 6 13 -3 26
-1 29 4 3 5 -1 9 -9 9 -8 0 -21 7 -28 16 -11 14 -10 18 5 30 13 9 24 10 37 3
11 -5 19 -12 19 -15z m171 -5 c8 -17 6 -20 -20 -25 -17 -4 -28 -10 -26 -14 3
-5 15 -6 28 -3 17 4 19 3 11 -6 -7 -7 -22 -11 -35 -9 -18 2 -25 10 -27 33 -6
51 45 68 69 24z m55 9 c-9 -5 -16 -22 -16 -38 0 -17 -4 -30 -10 -30 -5 0 -10
18 -10 39 0 29 4 41 18 44 25 5 37 -4 18 -15z m1829 -33 c5 0 13 14 17 30 6
29 6 29 5 -5 -2 -28 -6 -35 -22 -35 -16 0 -20 7 -22 35 -1 34 -1 34 5 5 4 -16
12 -30 17 -30z m2405 46 c0 -5 -10 -7 -22 -4 l-23 5 24 -20 c13 -11 21 -24 17
-31 -9 -14 -33 -14 -42 1 -5 8 -2 9 9 5 9 -3 19 -2 22 3 3 5 -4 11 -15 15 -20
6 -25 16 -13 28 10 10 43 8 43 -2z m2356 -2 c4 -8 0 -9 -15 -4 -15 4 -23 1
-28 -10 -8 -22 17 -37 37 -22 10 7 10 5 -2 -8 -14 -15 -20 -16 -32 -5 -16 13
-21 42 -9 53 10 11 41 8 49 -4z m2379 1 c4 -6 -3 -9 -17 -7 -15 1 -23 -4 -26
-17 -3 -16 1 -18 23 -14 24 5 25 4 11 -10 -12 -13 -18 -13 -30 -2 -16 13 -21
42 -9 53 10 10 41 8 48 -3z m595 -21 c0 -27 -2 -30 -15 -19 -10 9 -15 9 -15 1
0 -26 -17 -8 -18 19 -1 25 3 30 24 30 20 0 24 -5 24 -31z m96 -10 c1 -16 -2
-26 -7 -23 -5 3 -9 19 -9 36 0 39 14 28 16 -13z m-7750 19 c4 -6 3 -8 -4 -4
-5 3 -12 0 -15 -6 -2 -7 -8 -10 -12 -6 -8 8 2 28 15 28 5 0 12 -5 16 -12z m59
1 c4 -6 4 -13 0 -17 -3 -3 -10 0 -15 8 -8 12 -10 10 -10 -9 0 -18 4 -22 18
-16 13 5 14 3 5 -6 -14 -14 -33 -3 -33 20 0 29 22 42 35 20z m42 -14 c-7 -13
-14 -20 -15 -14 -5 14 6 39 17 39 5 0 4 -11 -2 -25z m59 13 c4 -6 3 -8 -4 -4
-5 3 -12 0 -15 -6 -2 -7 -8 -10 -12 -6 -8 8 2 28 15 28 5 0 12 -5 16 -12z
m2220 -6 c1 -7 0 -8 -3 -2 -8 18 -23 11 -23 -11 0 -16 4 -20 18 -14 13 5 14 3
5 -6 -14 -14 -33 -3 -33 20 0 31 30 42 36 13z m59 8 c4 -6 -1 -7 -11 -3 -12 4
-15 3 -10 -5 4 -7 2 -12 -3 -12 -12 0 -14 13 -4 23 9 10 21 9 28 -3z m51 -21
c0 -12 -6 -24 -13 -26 -10 -4 -12 33 -4 55 4 12 18 -12 17 -29z m92 -15 c-19
-19 -38 -11 -38 16 0 24 21 31 40 14 12 -12 12 -16 -2 -30z m69 15 l3 -24 -12
25 c-11 25 -11 25 -15 3 -5 -28 -23 -31 -23 -4 0 38 44 38 47 0z m50 16 c-4
-8 -2 -17 4 -20 5 -4 7 -11 4 -16 -8 -12 -35 -11 -35 2 0 5 6 7 13 3 8 -6 8
-3 -1 9 -14 17 -9 37 10 37 5 0 8 -7 5 -15z m2041 -9 c6 -29 -15 -43 -35 -24
-14 14 -14 20 -3 33 16 19 34 15 38 -9z m59 -11 c1 -20 0 -23 -4 -7 -5 26 -20
29 -26 5 -3 -11 -5 -7 -6 10 -1 22 3 28 17 25 11 -2 18 -13 19 -33z m63 23 c0
-7 -5 -20 -10 -28 -9 -13 -11 -13 -20 0 -5 8 -10 20 -10 25 0 6 4 3 10 -5 8
-12 10 -12 16 3 7 20 14 22 14 5z m55 1 c4 -6 4 -13 0 -17 -3 -3 -10 0 -15 8
-8 12 -10 10 -10 -7 0 -17 4 -21 18 -16 14 5 15 3 4 -8 -10 -11 -15 -10 -29 3
-13 14 -14 20 -3 32 15 19 26 20 35 5z m44 4 c0 -5 -4 -17 -9 -28 -8 -18 -9
-17 -9 8 -1 15 4 27 9 27 6 0 10 -3 9 -7z m55 -2 c3 -5 -1 -12 -10 -15 -20 -8
-29 -1 -19 13 8 13 22 14 29 2z m94 -15 c6 -29 -15 -43 -35 -24 -14 14 -14 20
-3 33 16 19 34 15 38 -9z m59 -11 c1 -20 0 -23 -4 -7 -5 26 -20 29 -26 5 -3
-11 -5 -7 -6 10 -1 22 3 28 17 25 11 -2 18 -13 19 -33z m57 26 c3 -5 -1 -12
-10 -15 -20 -8 -29 -1 -19 13 8 13 22 14 29 2z m1894 -15 c6 -29 -15 -43 -35
-24 -14 14 -14 20 -3 33 16 19 34 15 38 -9z m59 -11 c1 -20 0 -23 -4 -7 -5 26
-20 29 -26 5 -3 -11 -5 -7 -6 10 -1 22 3 28 17 25 11 -2 18 -13 19 -33z m58 5
c-8 -25 -29 -21 -33 6 -3 15 -1 16 7 4 9 -12 11 -12 17 3 9 25 17 13 9 -13z
m60 19 c4 -6 4 -13 0 -17 -3 -3 -10 0 -15 8 -8 12 -10 10 -10 -7 0 -17 4 -21
18 -16 14 5 15 3 4 -8 -10 -11 -15 -10 -29 3 -13 14 -14 20 -3 32 15 19 26 20
35 5z m44 4 c0 -5 -4 -17 -9 -28 -8 -18 -9 -17 -9 8 -1 15 4 27 9 27 6 0 10
-3 9 -7z m55 -2 c3 -5 -1 -12 -10 -15 -20 -8 -29 -1 -19 13 8 13 22 14 29 2z
m94 -15 c6 -29 -15 -43 -35 -24 -14 14 -14 20 -3 33 16 19 34 15 38 -9z m59
-11 c1 -20 0 -23 -4 -7 -5 26 -20 29 -26 5 -3 -11 -5 -7 -6 10 -1 22 3 28 17
25 11 -2 18 -13 19 -33z m161 1 c3 -22 0 -27 -14 -24 -20 3 -32 28 -14 28 6 0
8 -5 4 -12 -5 -7 -3 -8 6 -3 10 6 10 11 -3 20 -9 7 -14 15 -10 19 13 13 28 -1
31 -28z m102 19 c8 -9 8 -15 2 -15 -6 0 -13 6 -15 13 -3 6 -6 2 -6 -11 -1 -13
3 -20 9 -17 6 3 10 1 10 -4 0 -17 -30 -13 -36 4 -7 18 2 45 14 45 5 0 15 -7
22 -15z m-5293 -27 c-3 -7 -5 -2 -5 12 0 14 2 19 5 13 2 -7 2 -19 0 -25z
m2533 12 c0 -11 -4 -20 -8 -20 -4 0 -8 9 -9 20 -1 11 2 20 8 20 5 0 9 -9 9
-20z m2380 0 c0 -11 -4 -20 -10 -20 -5 0 -10 9 -10 20 0 11 5 20 10 20 6 0 10
-9 10 -20z m-10270 -46 l0 -55 -42 3 c-42 3 -43 4 -46 42 -5 57 2 66 48 66
l40 0 0 -56z m1220 46 c0 -6 -30 -10 -70 -10 -40 0 -70 4 -70 10 0 6 30 10 70
10 40 0 70 -4 70 -10z m1620 -9 c0 -17 -21 -24 -33 -12 -9 9 -7 10 7 5 13 -5
17 -4 12 4 -4 7 -2 12 3 12 6 0 11 -4 11 -9z m160 0 c0 -17 -21 -24 -33 -11
-9 10 -9 11 1 6 6 -4 12 -2 12 3 0 6 5 11 10 11 6 0 10 -4 10 -9z m2280 0 c0
-17 -21 -24 -33 -11 -9 10 -9 11 1 6 6 -4 12 -2 12 3 0 6 5 11 10 11 6 0 10
-4 10 -9z m2580 0 c0 -17 -21 -24 -33 -11 -9 10 -9 11 1 6 6 -4 12 -2 12 3 0
6 5 11 10 11 6 0 10 -4 10 -9z m210 0 c0 -17 -21 -24 -33 -11 -9 10 -9 11 1 6
6 -4 12 -2 12 3 0 6 5 11 10 11 6 0 10 -4 10 -9z m2170 0 c0 -17 -21 -24 -33
-11 -9 10 -9 11 1 6 6 -4 12 -2 12 3 0 6 5 11 10 11 6 0 10 -4 10 -9z m-10350
-56 c0 -34 -1 -35 -40 -35 -39 0 -40 1 -40 35 0 34 1 35 40 35 39 0 40 -1 40
-35z m1330 25 c0 -6 -30 -10 -70 -10 -40 0 -70 4 -70 10 0 6 30 10 70 10 40 0
70 -4 70 -10z m3669 -36 c12 -15 21 -32 21 -39 0 -7 -9 -24 -21 -39 -27 -34
-81 -36 -103 -4 -51 73 48 151 103 82z m2343 9 c28 -32 30 -58 7 -86 -40 -52
-119 -26 -119 40 0 52 79 84 112 46z m2328 9 c0 -4 -9 -13 -20 -20 -11 -7 -20
-23 -20 -37 0 -14 9 -30 20 -37 23 -15 26 -28 6 -28 -20 0 -46 39 -46 67 0 13
9 32 20 43 20 20 40 26 40 12z m52 -9 c16 -14 25 -43 13 -43 -5 0 -55 50 -55
55 0 11 25 4 42 -12z m-7099 -25 c17 -20 17 -22 -4 -45 -26 -27 -74 -31 -107
-7 -29 20 -28 38 5 64 33 26 79 21 106 -12z m385 -44 c29 -20 28 -39 -4 -81
l-25 -33 25 0 c16 0 26 -6 26 -15 0 -11 -12 -15 -44 -15 -25 0 -48 5 -52 11
-3 6 10 27 30 48 20 20 36 42 36 48 0 21 -21 25 -40 8 -14 -12 -20 -13 -26 -4
-4 7 2 20 16 31 27 22 30 22 58 2z m133 -3 c21 -17 22 -23 12 -40 -8 -13 -9
-22 -3 -26 17 -11 11 -54 -9 -65 -30 -15 -56 -12 -76 10 -14 16 -16 25 -8 43
7 15 7 29 2 40 -7 12 -4 22 11 37 25 25 41 25 71 1z m2400 8 c14 -7 20 -19 18
-37 -1 -15 2 -35 6 -46 9 -20 -2 -44 -27 -59 -20 -13 -64 -1 -72 19 -9 25 1
29 29 14 18 -10 28 -11 36 -3 14 14 3 33 -17 33 -19 0 -18 16 1 24 17 6 21 36
5 36 -6 0 -19 -5 -30 -12 -29 -18 -39 1 -11 23 27 22 35 23 62 8z m2216 -15
c22 -22 25 -32 20 -67 -3 -23 -14 -47 -23 -54 -41 -30 -83 -5 -91 54 -5 35 -2
45 20 67 14 14 31 26 37 26 6 0 23 -12 37 -26z m174 7 c21 -17 22 -23 12 -40
-8 -13 -9 -22 -3 -26 17 -11 11 -54 -9 -65 -30 -16 -56 -12 -77 11 -14 16 -16
24 -7 38 6 9 8 30 5 46 -3 20 0 32 13 42 25 18 39 17 66 -6z m137 -23 l-25
-33 23 -35 c27 -39 30 -50 11 -50 -7 0 -24 15 -37 33 l-25 32 -5 -30 c-3 -18
-11 -30 -20 -30 -12 0 -16 16 -18 73 -3 68 -2 72 19 72 17 0 20 -5 17 -25 -6
-30 7 -33 22 -4 11 19 50 41 59 33 2 -2 -8 -18 -21 -36z m1656 1 c-9 -10 -24
-19 -32 -19 -11 0 -6 9 14 29 31 32 48 23 18 -10z m311 28 c14 -11 17 -22 12
-45 -4 -17 -2 -34 3 -37 33 -20 -22 -72 -65 -61 -31 8 -51 42 -35 61 6 7 8 24
5 38 -5 19 -1 29 16 41 28 20 40 20 64 3z m283 -23 c3 -35 -20 -53 -44 -33
-17 14 -18 56 -1 62 26 12 42 1 45 -29z m19 -49 c-46 -68 -78 -98 -63 -59 12
31 98 144 106 139 5 -3 -15 -39 -43 -80z m-7439 3 c-2 -57 -6 -73 -18 -73 -11
0 -16 14 -18 58 -3 50 -5 57 -18 47 -11 -10 -14 -10 -14 2 0 21 21 38 47 38
23 0 24 -2 21 -72z m312 47 c0 -14 3 -25 6 -25 3 0 15 11 26 25 11 14 29 25
40 25 l21 0 -20 -22 c-33 -37 -33 -43 -8 -78 29 -39 31 -50 11 -50 -8 0 -24
14 -36 30 -24 34 -40 31 -40 -6 0 -16 -5 -24 -12 -22 -9 3 -14 30 -16 76 -2
60 0 72 13 72 9 0 15 -9 15 -25z m2110 15 c0 -16 -58 -128 -70 -135 -24 -15
-23 8 3 61 15 30 27 57 27 59 0 3 -16 5 -35 5 -19 0 -35 5 -35 10 0 6 25 10
55 10 31 0 55 -4 55 -10z m110 0 c0 -5 -13 -10 -30 -10 -20 0 -30 -5 -30 -15
0 -9 9 -15 23 -15 45 0 62 -46 30 -82 -20 -22 -42 -23 -72 -2 -29 21 -13 42
18 23 25 -16 47 0 37 26 -4 13 -13 15 -36 10 -30 -6 -30 -6 -30 34 l0 41 45 0
c25 0 45 -4 45 -10z m190 -15 c0 -14 3 -25 6 -25 3 0 15 11 26 25 11 14 29 25
41 25 19 0 19 -2 -8 -30 l-28 -29 26 -40 c31 -47 32 -51 13 -51 -8 0 -24 14
-36 30 -24 34 -40 31 -40 -6 0 -16 -5 -24 -12 -22 -9 3 -14 30 -16 76 -2 60 0
72 13 72 9 0 15 -9 15 -25z m2010 -51 c0 -56 -3 -75 -12 -72 -8 3 -14 27 -16
62 -2 47 -5 56 -17 46 -10 -8 -15 -8 -21 1 -8 14 22 39 48 39 16 0 18 -9 18
-76z m2600 67 c0 -6 -14 -11 -32 -13 -17 -2 -33 -9 -36 -16 -2 -7 2 -13 9 -11
33 4 50 -3 58 -23 11 -32 2 -58 -25 -70 -29 -13 -74 3 -74 27 0 18 21 20 38 3
16 -16 37 4 29 26 -5 11 -14 14 -37 10 -27 -6 -30 -4 -30 19 0 48 9 57 56 57
24 0 44 -4 44 -9z m388 -71 c-7 -10 -14 -17 -17 -15 -4 4 18 35 25 35 2 0 -1
-9 -8 -20z m-218 -29 c0 -28 -28 -47 -48 -34 -24 15 -27 44 -7 59 22 17 55 1
55 -25z m-2574 -12 c10 -17 -13 -36 -27 -22 -12 12 -4 33 11 33 5 0 12 -5 16
-11z m2280 0 c10 -17 -13 -36 -27 -22 -12 12 -4 33 11 33 5 0 12 -5 16 -11z
m-9427 -375 c2 -2 6 -16 7 -32 3 -20 -2 -30 -19 -37 -18 -9 -21 -17 -19 -57 3
-44 1 -49 -30 -68 -18 -11 -36 -20 -39 -20 -3 0 -13 16 -22 35 -19 39 -22 85
-7 85 6 0 10 -4 10 -10 0 -19 49 -11 60 10 9 17 7 20 -14 26 -13 3 -34 0 -46
-6 -21 -11 -22 -10 -15 21 11 47 40 68 90 61 22 -2 42 -6 44 -8z m41 -134 c0
-5 -2 -10 -4 -10 -3 0 -8 5 -11 10 -3 6 -1 10 4 10 6 0 11 -4 11 -10z m9335
-27 c133 -33 281 -139 361 -261 160 -240 125 -571 -81 -777 -196 -196 -487
-239 -735 -109 -37 19 -76 44 -85 54 -16 18 -15 21 20 64 21 26 41 46 46 46 4
0 27 -13 51 -29 51 -34 141 -66 216 -76 l53 -7 -3 -37 -3 -36 59 2 c151 5 315
101 410 240 159 233 131 531 -68 728 -104 103 -237 165 -353 165 -44 0 -61 15
-50 44 6 16 69 12 162 -11z m-6410 2 c235 -60 418 -256 461 -495 62 -345 -177
-672 -526 -722 -215 -30 -447 64 -575 234 -51 68 -50 70 20 108 46 25 46 25
57 5 6 -11 38 -47 72 -81 74 -73 162 -118 264 -136 l72 -12 0 -39 0 -40 63 5
c284 24 516 280 517 569 0 81 -30 203 -67 272 -16 28 -59 84 -97 125 -86 91
-188 145 -319 170 -71 13 -87 19 -87 34 0 23 61 24 145 3z m3265 -24 c271 -99
435 -367 399 -654 -21 -170 -117 -335 -243 -418 -24 -16 -23 -14 7 11 20 18
37 39 37 47 0 10 -11 6 -37 -15 -48 -36 -93 -66 -93 -59 0 2 19 17 43 32 99
66 194 199 231 325 20 65 22 215 5 286 -38 161 -159 311 -309 382 -84 40 -163
62 -220 62 -24 0 -30 4 -30 21 0 21 3 21 66 15 36 -4 101 -20 144 -35z m-6295
-31 c-3 -5 4 -11 17 -11 15 -1 17 -3 7 -6 -11 -3 -15 -11 -12 -24 7 -25 -9
-24 -32 1 -18 20 -18 21 1 35 23 17 27 18 19 5z m-1682 -57 c-24 -2 -62 -2
-85 0 -24 2 -5 4 42 4 47 0 66 -2 43 -4z m-166 -9 c-3 -3 -12 -4 -19 -1 -8 3
-5 6 6 6 11 1 17 -2 13 -5z m266 -1 c-7 -2 -19 -2 -25 0 -7 3 -2 5 12 5 14 0
19 -2 13 -5z m-316 -9 c-3 -3 -12 -4 -19 -1 -8 3 -5 6 6 6 11 1 17 -2 13 -5z
m370 0 c-3 -3 -12 -4 -19 -1 -8 3 -5 6 6 6 11 1 17 -2 13 -5z m40 -10 c-3 -3
-12 -4 -19 -1 -8 3 -5 6 6 6 11 1 17 -2 13 -5z m1483 0 c0 -3 -7 -12 -15 -20
-16 -17 -18 -14 -9 10 6 15 24 23 24 10z m2305 -4 c3 -6 -1 -7 -9 -4 -21 8
-20 -6 1 -21 17 -13 10 -35 -12 -35 -8 0 -17 5 -21 11 -4 8 0 9 15 4 12 -4 21
-2 21 4 0 6 -6 11 -14 11 -18 0 -29 16 -21 30 8 13 32 13 40 0z m271 -10 c9 0
14 -10 13 -27 -2 -24 -2 -25 -6 -5 -2 12 -8 22 -13 22 -5 0 -11 -10 -13 -22
-2 -13 -5 -5 -5 17 0 22 2 34 5 28 2 -7 11 -13 19 -13z m2929 10 c3 -6 -1 -7
-9 -4 -21 8 -20 -6 1 -21 9 -7 13 -17 9 -23 -9 -14 -33 -16 -40 -3 -4 5 4 7
16 4 l23 -5 -24 20 c-13 11 -21 24 -17 31 9 14 33 14 41 1z m242 -42 c-2 -13
-4 -5 -4 17 -1 22 1 32 4 23 2 -10 2 -28 0 -40z m2959 12 c2 -29 0 -32 -9 -18
-10 15 -12 15 -24 0 -11 -15 -12 -13 -13 14 0 35 7 46 30 42 10 -2 16 -15 16
-38z m106 5 c-2 -19 -8 -35 -13 -35 -10 0 -12 53 -2 63 14 15 19 6 15 -28z
m238 -1 c0 -21 -4 -33 -10 -29 -17 10 -11 65 7 65 2 0 3 -16 3 -36z m-6680
-10 c0 -33 -33 -30 -38 4 -3 17 2 22 17 22 16 0 21 -6 21 -26z m60 1 c0 -18
-5 -25 -20 -25 -25 0 -27 30 -2 31 14 0 14 2 -3 9 -19 8 -19 9 3 9 17 1 22 -5
22 -24z m44 17 c-7 -4 -14 -16 -17 -27 -4 -15 -5 -14 -6 8 -1 20 4 27 17 27
11 0 13 -3 6 -8z m44 1 c-10 -2 -18 -11 -18 -20 0 -9 6 -13 15 -9 8 3 15 1 15
-4 0 -13 -27 -13 -35 0 -11 17 3 40 22 39 17 -1 17 -2 1 -6z m3050 -15 c-2
-13 -10 -23 -18 -23 -8 0 -16 10 -18 23 -3 17 2 22 18 22 16 0 21 -5 18 -22z
m50 15 c-10 -2 -18 -11 -18 -20 0 -9 6 -13 15 -9 8 3 15 1 15 -4 0 -13 -27
-13 -35 0 -11 17 3 40 22 39 17 -1 17 -2 1 -6z m39 -30 c-3 -10 -5 -4 -5 12 0
17 2 24 5 18 2 -7 2 -21 0 -30z m63 12 c0 -18 -5 -25 -20 -25 -25 0 -27 30 -2
31 14 0 14 2 -3 9 -19 8 -19 9 3 9 17 1 22 -5 22 -24z m81 16 c-9 -6 -10 -11
-2 -15 14 -9 5 -26 -13 -26 -8 0 -13 11 -13 25 0 19 5 25 21 25 15 0 17 -3 7
-9z m2969 -17 c0 -33 -33 -30 -38 4 -3 17 2 22 17 22 16 0 21 -6 21 -26z m100
0 c0 -33 -33 -30 -38 4 -3 17 2 22 17 22 16 0 21 -6 21 -26z m44 18 c-7 -4
-14 -16 -17 -27 -4 -15 -5 -14 -6 8 -1 20 4 27 17 27 11 0 13 -3 6 -8z m39 -4
c-4 -7 -8 -16 -8 -20 0 -21 -15 -17 -15 5 0 18 5 27 16 27 10 0 12 -4 7 -12z
m65 -16 c3 -16 -2 -22 -17 -22 -26 0 -37 18 -16 26 13 6 14 9 3 16 -9 7 -8 8
7 6 12 -2 21 -12 23 -26z m-11058 8 c-8 -5 -19 -10 -25 -10 -5 0 -3 5 5 10 8
5 20 10 25 10 6 0 3 -5 -5 -10z m670 -5 c14 -8 21 -14 15 -14 -5 0 -21 6 -35
14 -14 8 -20 14 -15 14 6 0 21 -6 35 -14z m-722 -19 c-13 -9 -18 -27 -18 -59
0 -40 2 -45 18 -40 9 4 -21 -22 -68 -58 -101 -77 -176 -166 -229 -274 -96
-193 -105 -418 -26 -607 15 -35 32 -75 38 -90 15 -37 -12 -68 -60 -68 -32 0
-36 4 -63 64 -92 201 -105 441 -36 644 71 209 217 381 403 477 53 27 67 31 41
11z m300 -13 c-10 -2 -26 -2 -35 0 -10 3 -2 5 17 5 19 0 27 -2 18 -5z m175 0
c-7 -2 -21 -2 -30 0 -10 3 -4 5 12 5 17 0 24 -2 18 -5z m387 -47 c60 -40 134
-110 182 -169 43 -55 45 -62 22 -71 -14 -5 -15 -4 -5 8 23 27 -113 170 -230
243 -33 20 -59 38 -59 40 0 6 40 -17 90 -51z m-627 37 c-7 -2 -19 -2 -25 0 -7
3 -2 5 12 5 14 0 19 -2 13 -5z m300 0 c-7 -2 -19 -2 -25 0 -7 3 -2 5 12 5 14
0 19 -2 13 -5z m1599 -15 c-7 -7 -12 -8 -12 -2 0 14 12 26 19 19 2 -3 -1 -11
-7 -17z m-1945 6 c-3 -3 -12 -4 -19 -1 -8 3 -5 6 6 6 11 1 17 -2 13 -5z m390
0 c-3 -3 -12 -4 -19 -1 -8 3 -5 6 6 6 11 1 17 -2 13 -5z m73 -24 c8 -5 11 -10
5 -10 -5 0 -17 5 -25 10 -8 5 -10 10 -5 10 6 0 17 -5 25 -10z m-600 -24 c0 -2
-7 -7 -16 -10 -8 -3 -12 -2 -9 4 6 10 25 14 25 6z m665 -6 c3 -6 -1 -7 -9 -4
-18 7 -21 14 -7 14 6 0 13 -4 16 -10z m113 -74 c10 -12 0 -8 -23 9 -56 40 -66
51 -27 29 18 -10 41 -28 50 -38z m3619 32 c-2 -7 -15 -12 -29 -10 -16 2 -28
-3 -31 -12 -5 -12 1 -16 24 -16 22 0 32 -6 41 -25 23 -52 -46 -100 -86 -59
-31 30 -14 45 24 22 15 -10 22 -10 31 -1 21 21 -7 43 -43 36 -29 -6 -31 -4
-25 18 4 13 7 32 7 42 0 14 9 17 46 17 32 0 44 -4 41 -12z m124 -4 c19 -23 15
-91 -7 -115 -21 -23 -62 -22 -78 3 -13 22 -1 35 19 18 16 -13 45 -7 45 10 0 7
-8 9 -19 5 -22 -7 -61 25 -61 49 0 41 74 62 101 30z m135 -9 c12 -18 15 -37
11 -63 -14 -83 -100 -83 -114 0 -8 51 16 88 57 88 21 0 35 -8 46 -25z m2936
-22 c-2 -26 1 -43 7 -43 16 0 14 -23 -4 -46 -14 -18 -16 -18 -29 -1 -7 9 -25
17 -40 17 -34 0 -33 17 2 75 19 33 33 45 47 43 17 -3 19 -9 17 -45z m135 35
c-2 -8 -15 -12 -30 -10 -19 2 -27 -1 -27 -12 0 -9 11 -16 27 -18 20 -2 30 -11
37 -30 18 -52 -50 -91 -89 -52 -22 23 -4 40 24 23 16 -10 23 -11 32 -2 19 19
-7 44 -37 37 -22 -6 -24 -3 -24 35 l0 41 46 0 c32 0 44 -4 41 -12z m121 0 c19
-19 14 -44 -14 -77 l-26 -31 26 0 c16 0 26 -6 26 -15 0 -11 -12 -15 -50 -15
-61 0 -64 13 -15 60 19 19 35 40 35 46 0 22 -20 27 -39 10 -21 -19 -31 -20
-31 -3 0 21 22 37 50 37 14 0 31 -5 38 -12z m2951 -6 c6 -11 6 -24 0 -34 -6
-12 -6 -24 2 -36 16 -26 5 -50 -26 -58 -32 -8 -75 10 -75 31 0 18 21 20 37 4
7 -7 20 -8 30 -5 17 7 16 9 -6 27 -23 19 -23 20 -5 34 28 20 5 42 -24 24 -25
-16 -40 -5 -22 16 18 21 77 20 89 -3z m130 0 c6 -11 6 -24 0 -34 -6 -12 -6
-24 2 -36 26 -41 -26 -77 -77 -53 -25 11 -34 54 -14 66 6 4 5 13 -2 25 -9 14
-9 22 1 34 19 22 78 21 90 -2z m131 -2 c9 -17 8 -20 -9 -20 -11 0 -23 5 -26
10 -5 8 -11 7 -21 -1 -22 -18 -17 -24 18 -24 26 0 34 -5 42 -27 18 -52 -44
-89 -86 -51 -20 18 -25 82 -8 114 15 27 75 26 90 -1z m-10200 -95 c30 -30 52
-55 49 -55 -2 0 -29 25 -59 55 -30 30 -52 55 -49 55 2 0 29 -25 59 -55z m102
-90 c10 7 11 5 0 -6 -10 -11 -16 -9 -35 11 -22 24 -22 24 0 6 12 -10 27 -15
35 -11z m848 -29 c0 -48 -22 -81 -47 -72 -8 3 -17 6 -19 6 -2 0 -4 7 -4 16 0
13 3 14 15 4 22 -19 35 -3 35 46 0 24 5 44 10 44 6 0 10 -20 10 -44z m125 23
c-4 -5 5 -9 18 -9 14 0 28 -7 31 -16 9 -25 7 -64 -4 -64 -5 0 -10 14 -10 30 0
42 -28 40 -32 -2 -4 -47 -23 -36 -25 14 -3 51 3 72 17 63 6 -4 8 -11 5 -16z
m275 1 c39 -39 18 -90 -38 -90 l-37 0 2 52 c1 29 2 54 2 56 3 11 55 -2 71 -18z
m-322 -22 c18 -18 14 -56 -7 -68 -26 -14 -50 -3 -57 26 -11 42 34 72 64 42z
m186 -4 c9 -24 7 -64 -3 -64 -5 0 -11 12 -13 27 -4 38 -28 42 -28 4 0 -16 -4
-33 -10 -36 -6 -4 -10 12 -10 39 0 44 1 46 29 46 17 0 31 -6 35 -16z m236 1
c15 -18 6 -61 -16 -69 -24 -9 -54 12 -54 37 0 43 44 63 70 32z m90 -4 c15 -29
13 -31 -21 -31 -18 0 -28 -4 -24 -10 4 -6 15 -8 26 -5 23 8 26 -10 3 -19 -24
-9 -54 12 -54 37 0 45 50 65 70 28z m1945 -31 c3 -6 -1 -7 -9 -4 -21 8 -20 -6
1 -21 17 -13 10 -35 -12 -35 -8 0 -17 5 -21 11 -4 8 0 9 15 4 12 -4 21 -2 21
4 0 6 -6 11 -14 11 -18 0 -29 16 -21 30 8 13 32 13 40 0z m92 -42 c-2 -13 -4
-5 -4 17 -1 22 1 32 4 23 2 -10 2 -28 0 -40z m3108 42 c3 -6 -1 -7 -9 -4 -21
8 -20 -6 1 -21 9 -7 13 -17 9 -23 -9 -14 -33 -16 -40 -3 -4 5 4 7 16 4 l23 -5
-24 20 c-13 11 -21 24 -17 31 9 14 33 14 41 1z m92 -42 c-2 -13 -4 -5 -4 17
-1 22 1 32 4 23 2 -10 2 -28 0 -40z m3108 42 c3 -6 -1 -7 -9 -4 -9 3 -16 2
-16 -4 0 -5 7 -12 15 -16 8 -3 15 -12 15 -21 0 -17 -35 -21 -46 -4 -4 8 0 9
15 4 12 -4 21 -2 21 4 0 6 -6 11 -14 11 -18 0 -29 16 -21 30 8 13 32 13 40 0z
m92 -42 c-2 -13 -4 -5 -4 17 -1 22 1 32 4 23 2 -10 2 -28 0 -40z m-6427 7 c0
-18 -5 -25 -20 -25 -25 0 -27 30 -2 31 14 0 14 2 -3 9 -19 8 -19 9 3 9 17 1
22 -5 22 -24z m90 -1 c0 -33 -33 -30 -38 4 -3 17 2 22 17 22 16 0 21 -6 21
-26z m51 17 c-9 -6 -10 -11 -2 -15 14 -9 5 -26 -13 -26 -8 0 -13 11 -13 25 0
19 5 25 21 25 15 0 17 -3 7 -9z m3059 -16 c0 -18 -5 -25 -20 -25 -11 0 -20 7
-20 15 0 8 6 15 13 15 8 0 7 4 -3 10 -12 8 -11 10 8 10 17 0 22 -6 22 -25z
m90 -1 c0 -33 -33 -30 -38 4 -3 17 2 22 17 22 16 0 21 -6 21 -26z m42 17 c-11
-7 -10 -9 3 -15 18 -7 11 -26 -9 -26 -8 0 -13 11 -13 25 0 16 5 25 16 25 12 0
13 -2 3 -9z m3068 -16 c0 -18 -5 -25 -20 -25 -25 0 -27 30 -2 31 14 0 14 2 -3
9 -19 8 -19 9 3 9 17 1 22 -5 22 -24z m90 -1 c0 -33 -33 -30 -38 4 -3 17 2 22
17 22 16 0 21 -6 21 -26z m51 17 c-9 -6 -10 -11 -2 -15 17 -11 13 -26 -8 -26
-13 0 -18 7 -18 25 0 19 5 25 21 25 15 0 17 -3 7 -9z m-10896 -103 c1 -19 -2
-24 -10 -18 -7 6 -15 7 -18 3 -4 -3 -7 1 -7 11 0 9 4 15 9 11 5 -3 12 -1 15 4
4 5 -2 12 -11 15 -14 4 -14 4 2 3 14 -2 20 -10 20 -29z m48 25 c-7 -2 -13 -13
-13 -23 0 -10 6 -21 13 -23 7 -3 5 -6 -5 -6 -13 -1 -18 7 -18 29 0 22 5 30 18
29 10 0 12 -3 5 -6z m67 -23 c-19 -13 -30 -12 -30 0 0 6 6 9 13 8 6 -2 11 4 9
12 -3 12 -1 13 10 2 11 -11 10 -14 -2 -22z m57 24 c-3 -3 -12 -4 -19 -1 -8 3
-5 6 6 6 11 1 17 -2 13 -5z m73 -48 c0 -5 -7 -3 -16 5 -13 10 -17 10 -25 -2
-12 -19 -11 -6 2 28 l11 28 13 -25 c8 -14 14 -29 15 -34z m44 46 c-7 -4 -14
-18 -16 -32 -3 -23 -4 -22 -9 8 -5 27 -3 32 15 32 13 0 17 -3 10 -8z m94 -23
c-1 -20 -4 -26 -10 -17 -6 10 -10 10 -18 -2 -7 -11 -10 -7 -10 18 0 25 4 32
19 32 15 0 19 -7 19 -31z m61 0 c10 -28 9 -30 -5 -18 -13 10 -17 10 -25 -2
-13 -21 -12 7 1 32 14 25 16 24 29 -12z m43 1 c-2 -16 -5 -30 -7 -30 -2 0 -5
14 -7 30 -3 19 0 30 7 30 7 0 10 -11 7 -30z m61 23 c-7 -2 -13 -13 -13 -23 0
-10 6 -21 13 -23 7 -3 5 -6 -5 -6 -13 -1 -18 7 -18 29 0 22 5 30 18 29 10 0
12 -3 5 -6z m-397 -28 c-3 -10 1 -15 11 -15 9 0 14 -3 10 -6 -12 -12 -37 5
-31 21 3 8 8 15 11 15 3 0 3 -7 -1 -15z m1550 -17 c5 -8 2 -9 -9 -5 -22 8 -22
-2 0 -18 9 -7 13 -17 9 -23 -9 -14 -33 -16 -40 -3 -4 5 4 7 16 4 l23 -5 -24
20 c-13 11 -21 24 -17 31 9 14 33 14 42 -1z m91 -40 c-2 -13 -4 -5 -4 17 -1
22 1 32 4 23 2 -10 2 -28 0 -40z m197 25 c8 -16 15 -23 16 -17 0 5 7 19 15 30
13 18 14 16 14 -21 0 -29 -3 -35 -8 -21 -7 19 -8 19 -15 0 -7 -19 -8 -19 -18
1 -11 19 -11 19 -19 0 -6 -15 -8 -11 -8 18 -1 44 3 46 23 10z m-224 -18 c0
-18 -5 -25 -20 -25 -24 0 -26 18 -3 27 15 6 15 7 -3 14 -17 7 -17 8 4 8 17 1
22 -5 22 -24z m90 10 c0 -8 -8 -15 -17 -16 -15 0 -15 -2 2 -9 16 -7 17 -9 3
-9 -21 -1 -32 15 -24 34 7 20 36 19 36 0z m46 6 c-18 -7 -18 -8 -3 -14 25 -9
21 -27 -5 -26 -21 0 -21 1 -4 8 18 7 18 8 3 14 -25 9 -21 27 6 26 20 0 20 -1
3 -8z m194 -16 c0 -18 -5 -25 -20 -25 -24 0 -26 18 -3 27 15 6 15 7 -3 14 -17
7 -17 8 4 8 17 1 22 -5 22 -24z m59 -2 c-2 -24 -2 -25 -6 -5 -2 12 -8 22 -13
22 -5 0 -11 -10 -13 -22 -4 -20 -4 -19 -6 5 -1 21 4 27 19 27 15 0 20 -6 19
-27z m61 2 c0 -18 -5 -25 -20 -25 -24 0 -27 18 -4 27 13 5 13 7 2 14 -10 7 -9
9 5 9 12 0 17 -8 17 -25z m68 -7 c-2 -24 -8 -33 -23 -35 -11 -2 -14 0 -7 3 10
5 9 9 -4 19 -22 16 -12 45 16 45 18 0 21 -5 18 -32z m60 15 c2 -7 -5 -13 -15
-14 -16 0 -16 -1 2 -9 19 -8 19 -9 -2 -9 -22 -1 -33 15 -25 37 6 16 34 12 40
-5z m34 -8 c-2 -14 -6 -25 -8 -25 -2 0 -4 11 -4 25 0 14 4 25 9 25 4 0 6 -11
3 -25z m-2304 -113 c2 -11 -17 -61 -43 -111 -39 -78 -49 -91 -70 -91 -14 0
-25 3 -25 8 0 4 20 44 44 89 l43 82 -51 3 c-37 2 -51 7 -52 18 -1 25 1 25 78
24 65 -2 73 -4 76 -22z m160 -50 c2 -55 6 -72 17 -72 8 0 15 -9 15 -20 0 -11
-7 -20 -15 -20 -8 0 -15 -9 -15 -20 0 -14 -7 -20 -21 -20 -12 0 -23 8 -26 20
-4 17 -14 20 -54 20 -43 0 -49 2 -49 21 0 21 73 147 92 160 5 3 19 5 31 4 20
-1 22 -7 25 -73z m285 46 c24 -29 15 -63 -29 -108 -19 -20 -34 -38 -34 -41 0
-2 18 -3 40 -1 37 4 40 2 40 -22 0 -26 0 -26 -80 -26 -71 0 -80 2 -80 18 0 11
25 44 56 75 57 57 62 72 30 91 -14 9 -21 7 -33 -11 -9 -13 -24 -23 -34 -23
-29 0 -23 35 8 60 35 27 89 21 116 -12z m7201 -76 c20 -27 20 -27 0 -9 -27 23
-33 22 -73 -14 l-33 -31 23 -25 c13 -13 57 -47 97 -74 41 -27 70 -49 64 -49
-13 0 -143 94 -171 124 l-24 26 44 39 c24 22 46 40 49 40 3 0 14 -12 24 -27z
m-7119 -31 c-3 -8 0 -18 6 -22 6 -4 8 -12 4 -18 -5 -8 -11 -9 -19 -2 -7 6 -17
7 -21 3 -5 -4 -5 1 -2 11 4 9 2 17 -3 17 -6 0 -10 6 -10 14 0 9 10 13 25 12
17 -1 24 -5 20 -15z m7170 -11 c10 -11 16 -20 13 -20 -3 0 -13 9 -23 20 -10
11 -16 20 -13 20 3 0 13 -9 23 -20z m65 -46 c0 -2 -9 0 -20 6 -11 6 -20 13
-20 16 0 2 9 0 20 -6 11 -6 20 -13 20 -16z m-7494 5 c3 -6 -1 -18 -10 -27 -15
-15 -17 -15 -32 0 -19 19 -11 38 16 38 10 0 22 -5 26 -11z m7722 -101 l-1 -43
-4 37 c-4 34 -7 37 -41 41 l-37 4 43 1 42 2 -2 -42z m342 17 c0 -6 -97 -55
-107 -55 -4 1 17 14 47 30 61 32 60 32 60 25z m-110 -25 c-8 -5 -19 -10 -25
-10 -5 0 -3 5 5 10 8 5 20 10 25 10 6 0 3 -5 -5 -10z m-73 -26 c-3 -3 -12 -4
-19 -1 -8 3 -5 6 6 6 11 1 17 -2 13 -5z m-54 -11 c-7 -2 -19 -2 -25 0 -7 3 -2
5 12 5 14 0 19 -2 13 -5z m-256 -9 c-3 -3 -12 -4 -19 -1 -8 3 -5 6 6 6 11 1
17 -2 13 -5z m40 -10 c-3 -3 -12 -4 -19 -1 -8 3 -5 6 6 6 11 1 17 -2 13 -5z
m270 0 c-3 -3 -12 -4 -19 -1 -8 3 -5 6 6 6 11 1 17 -2 13 -5z m-94 -11 c-29
-2 -77 -2 -105 0 -29 2 -6 3 52 3 58 0 81 -1 53 -3z m-6431 -468 c9 -21 8 -28
-7 -45 -10 -11 -26 -20 -37 -20 -15 0 -18 8 -18 45 0 41 2 45 25 45 17 0 29
-8 37 -25z m158 16 c0 -5 9 -11 20 -14 14 -3 20 -14 20 -31 0 -14 -4 -26 -8
-26 -5 0 -8 10 -8 21 1 12 -5 24 -11 26 -8 3 -13 -5 -13 -21 0 -42 -15 -30
-17 14 -1 22 3 40 8 40 5 0 9 -4 9 -9z m70 0 c0 -5 9 -11 20 -14 13 -3 20 -14
20 -30 0 -31 -9 -38 -38 -31 -17 5 -21 13 -20 45 0 21 4 39 9 39 5 0 9 -4 9
-9z m290 -30 c0 -27 -5 -41 -16 -45 -21 -8 -44 11 -44 35 0 11 -4 19 -10 19
-5 0 -10 -11 -10 -25 0 -14 -4 -25 -10 -25 -5 0 -10 14 -10 31 0 25 4 30 23
29 43 -4 68 0 62 10 -3 6 -1 10 4 10 6 0 11 -18 11 -39z m-452 -12 c3 -26 -19
-46 -39 -33 -15 9 -10 34 6 34 8 0 15 4 15 10 0 5 -7 6 -17 3 -11 -4 -14 -3
-9 6 13 20 41 8 44 -20z m62 21 c0 -5 -7 -7 -15 -4 -8 4 -15 1 -15 -5 0 -6 7
-11 15 -11 20 0 19 -29 -1 -37 -8 -3 -20 -1 -27 6 -8 8 -5 11 13 11 l24 0 -22
16 c-12 8 -20 20 -17 25 8 12 45 12 45 -1z m205 -25 c0 -37 -28 -46 -45 -15
-9 16 -8 25 1 36 20 24 44 13 44 -21z m73 4 c4 -33 -24 -47 -47 -24 -14 14
-14 16 7 21 12 4 22 11 22 16 0 6 -7 8 -15 4 -8 -3 -15 -1 -15 5 0 6 10 9 23
7 15 -2 23 -11 25 -29z m1472 -29 c0 -11 -6 -20 -14 -20 -8 0 -17 -8 -19 -17
-3 -10 -5 -1 -6 20 -1 31 2 37 19 37 13 0 20 -7 20 -20z m217 -32 c-2 -13 -4
-5 -4 17 -1 22 1 32 4 23 2 -10 2 -28 0 -40z m4519 12 c2 -30 0 -32 -11 -17
-16 22 -22 21 -28 0 -3 -10 -5 -1 -6 20 -1 34 1 38 21 35 18 -2 23 -10 24 -38z
m462 8 c-2 -25 -8 -33 -23 -33 -15 0 -21 8 -23 33 -3 29 -1 32 23 32 24 0 26
-3 23 -32z m-5140 -24 c-19 -19 -38 -11 -38 16 0 24 21 31 40 14 12 -12 12
-16 -2 -30z m72 15 c0 -16 -26 -39 -44 -39 -12 0 -6 58 7 63 20 7 37 -4 37
-24z m148 -2 c2 -19 -1 -27 -12 -27 -21 0 -31 21 -15 31 11 7 11 9 1 9 -7 0
-10 5 -7 11 11 17 30 4 33 -24z m4518 0 c-4 -27 -19 -32 -36 -12 -10 12 -10
18 0 29 16 20 40 9 36 -17z m117 -7 c-3 -11 -12 -20 -19 -20 -20 0 -29 27 -14
45 17 20 40 2 33 -25z m66 -4 c-2 -20 -2 -20 -6 2 -5 25 -23 30 -23 7 0 -8 -4
-15 -10 -15 -14 0 -12 38 3 43 18 7 37 -13 36 -37z m116 14 c0 -13 -6 -25 -12
-27 -16 -6 -27 21 -19 43 9 23 31 11 31 -16z m-4917 0 l11 25 0 -28 c1 -22 -3
-28 -16 -25 -11 2 -19 13 -20 28 l-2 25 8 -25 8 -25 11 25z m134 -5 c-2 -14
-6 -25 -8 -25 -2 0 -4 11 -4 25 0 14 4 25 9 25 4 0 6 -11 3 -25z m4518 14 c0
-8 4 -8 14 0 12 10 13 8 9 -9 -8 -31 -19 -32 -31 -5 -7 15 -8 25 -2 25 6 0 10
-5 10 -11z m198 -9 l11 25 0 -28 c1 -22 -3 -28 -16 -25 -11 2 -19 13 -20 28
l-2 25 8 -25 8 -25 11 25z m223 10 c8 12 9 9 4 -10 -4 -14 -12 -30 -19 -37 -8
-9 -11 -4 -12 23 0 21 3 30 8 22 6 -10 10 -10 19 2z m-5224 -142 c16 -20 14
-85 -2 -98 -8 -6 -24 -10 -37 -8 -21 3 -23 9 -26 61 l-3 57 29 0 c16 0 34 -6
39 -12z m333 -46 c0 -57 0 -58 -27 -56 -40 2 -40 2 -45 22 -8 28 9 62 31 62
10 0 21 7 25 15 11 29 16 15 16 -43z m4415 42 c21 -21 13 -29 -13 -13 -39 24
-72 -32 -37 -61 12 -10 19 -10 27 -2 7 7 19 12 27 12 12 0 10 -6 -7 -22 -21
-21 -24 -22 -50 -8 -33 19 -41 63 -16 91 21 23 47 24 69 3z m143 -11 c12 -12
13 -18 4 -21 -15 -5 -16 -34 0 -50 16 -16 2 -28 -16 -13 -21 18 -29 101 -9
101 2 0 12 -8 21 -17z m-4818 -13 c0 -5 -4 -10 -10 -10 -5 0 -10 -13 -10 -29
0 -17 -4 -33 -10 -36 -6 -4 -10 12 -10 39 0 39 3 46 20 46 11 0 20 -4 20 -10z
m78 -35 c3 -39 2 -41 -25 -39 -42 2 -43 3 -43 19 0 8 12 22 28 30 23 14 24 16
5 12 -13 -3 -23 -2 -23 2 0 14 14 22 35 19 16 -2 21 -12 23 -43z m90 -3 c2
-29 0 -42 -7 -37 -6 3 -11 19 -11 36 0 19 -5 29 -15 29 -10 0 -15 -10 -15 -29
0 -17 -4 -33 -10 -36 -6 -4 -10 12 -10 40 0 46 0 46 33 43 30 -3 32 -5 35 -46z
m169 31 c3 -7 -4 -10 -19 -7 -21 5 -20 3 5 -11 31 -18 33 -27 12 -45 -15 -13
-55 -5 -55 11 0 6 9 7 20 4 11 -4 20 -2 20 4 0 6 -6 11 -14 11 -19 0 -29 17
-22 36 7 18 47 15 53 -3z m4431 -24 c3 -30 -1 -37 -18 -42 -51 -13 -68 22 -22
48 22 12 23 15 7 14 -31 -2 -37 0 -30 12 4 5 19 9 33 7 23 -3 27 -8 30 -39z
m142 22 c15 -29 13 -31 -21 -31 -18 0 -28 -4 -24 -10 4 -6 15 -8 26 -5 10 4
19 2 19 -4 0 -16 -40 -24 -55 -11 -18 15 -19 52 -3 68 18 18 46 14 58 -7z m93
-23 c-2 -64 -2 -66 -19 -72 -20 -8 -54 2 -54 15 0 5 11 7 24 3 14 -3 27 -1 31
6 5 8 3 11 -6 8 -25 -9 -49 11 -49 41 0 36 8 43 44 39 27 -3 29 -6 29 -40z
m87 27 c7 -8 10 -25 6 -39 -12 -48 -76 -41 -76 8 0 42 45 62 70 31z m70 6 c0
-5 -7 -11 -15 -15 -9 -3 -15 -18 -15 -36 0 -18 -4 -29 -10 -25 -5 3 -10 24
-10 46 0 35 3 39 25 39 14 0 25 -4 25 -9z m38 -18 l10 -28 7 28 c4 15 13 27
21 27 11 0 9 -11 -7 -52 -21 -54 -36 -71 -52 -61 -5 3 -2 10 7 15 14 8 14 12
1 45 -17 41 -19 53 -6 53 5 0 14 -12 19 -27z m-7404 -199 c9 -24 9 -24 -34
-24 -31 0 -38 3 -34 15 4 10 13 13 25 10 11 -4 19 -2 19 4 0 17 17 13 24 -5z
m215 2 c15 -18 3 -46 -19 -46 -10 0 -21 -8 -23 -17 -3 -10 -5 3 -6 30 -1 40 2
47 18 47 10 0 24 -6 30 -14z m191 -37 c0 -38 -1 -40 -27 -37 -22 2 -29 9 -31
31 -3 25 5 32 31 28 4 0 7 4 7 9 0 6 5 10 10 10 6 0 10 -18 10 -41z m165 -5
c0 -19 -3 -34 -6 -34 -8 0 -18 62 -12 73 9 15 18 -4 18 -39z m-312 18 c-6 -4
-13 -18 -16 -32 -4 -22 -4 -21 -6 7 0 17 5 33 12 36 16 6 24 -2 10 -11z m67 3
c18 -22 3 -57 -23 -53 -25 3 -34 32 -17 53 16 19 24 19 40 0z m207 -2 c3 -7
-4 -9 -17 -6 -18 5 -21 2 -18 -13 2 -11 11 -18 21 -18 9 1 17 -3 17 -8 0 -5
-10 -8 -22 -6 -15 2 -24 11 -26 27 -5 34 35 55 45 24z m98 7 c3 -5 -2 -10 -12
-10 -17 -1 -17 -1 0 -11 9 -5 17 -17 17 -24 0 -17 -36 -20 -46 -4 -4 8 1 9 17
4 l24 -6 -23 18 c-18 15 -20 21 -10 31 15 15 25 15 33 2z m-195 -25 c0 -14 5
-25 10 -25 6 0 10 11 10 25 0 14 4 25 8 25 5 0 7 -14 4 -31 -4 -24 -9 -29 -26
-27 -15 2 -22 11 -24 31 -2 15 1 27 7 27 6 0 11 -11 11 -25z m-480 -41 c0 -33
-2 -35 -27 -32 -23 2 -29 8 -31 36 -3 30 -1 32 27 32 29 0 31 -3 31 -36z m85
1 c0 -25 -4 -30 -24 -30 -32 0 -49 28 -31 50 7 9 23 15 34 13 16 -2 21 -10 21
-33z m3576 -85 c25 -14 25 -56 -1 -70 -45 -24 -86 44 -42 69 21 13 20 13 43 1z
m656 -27 c9 -24 -33 -56 -58 -43 -24 13 -25 56 -2 69 20 11 51 -2 60 -26z
m-513 18 c4 -5 -3 -7 -15 -4 -17 5 -20 2 -17 -18 2 -18 8 -23 23 -21 16 3 17
1 8 -8 -14 -15 -41 -7 -49 15 -11 28 35 61 50 36z m631 -2 c4 -5 -5 -21 -19
-34 l-26 -24 0 34 c0 28 4 35 19 35 11 0 23 -5 26 -11z m-319 -28 c-1 -16 -4
-27 -8 -24 -11 6 -10 53 1 53 4 0 8 -13 7 -29z m-266 -21 c5 0 11 10 13 23 4
18 5 17 6 -6 1 -22 -3 -28 -16 -25 -10 2 -18 12 -19 23 -1 15 0 16 3 3 3 -10
8 -18 13 -18z m64 32 c-7 -4 -14 -16 -17 -27 -4 -15 -5 -14 -6 8 -1 20 4 27
17 27 11 0 13 -3 6 -8z m39 -4 c-6 -7 -13 -20 -16 -28 -3 -9 -6 -3 -6 13 -1
19 4 27 15 27 12 0 14 -4 7 -12z m65 -5 c2 -7 -4 -13 -15 -13 -15 0 -16 -2 -3
-10 13 -8 13 -10 -2 -10 -21 0 -32 16 -24 36 7 18 37 15 44 -3z m59 -13 c1
-22 1 -22 -4 -2 -6 28 -23 29 -23 0 0 -16 -3 -19 -11 -11 -16 16 -3 45 18 41
11 -2 19 -13 20 -28z m395 5 c-5 -28 -22 -24 -22 6 0 10 6 19 14 19 9 0 12 -8
8 -25z m66 8 c2 -7 -4 -13 -15 -13 -15 0 -16 -2 -3 -10 13 -8 13 -10 -1 -10
-18 0 -33 26 -23 41 8 13 36 7 42 -8z m33 5 c0 -10 2 -10 6 0 8 20 22 14 16
-8 -8 -31 -19 -32 -31 -5 -7 15 -8 25 -2 25 6 0 10 -6 11 -12z m59 -8 c0 -11
-4 -20 -10 -20 -5 0 -10 9 -10 20 0 11 5 20 10 20 6 0 10 -9 10 -20z m55 -5
c0 -11 -7 -21 -16 -23 -18 -3 -33 23 -23 39 10 17 39 5 39 -16z m53 5 l11 25
0 -27 c1 -22 -4 -28 -19 -28 -15 0 -20 6 -19 28 l1 27 8 -25 7 -25 11 25z m54
11 c-11 -7 -10 -9 3 -15 18 -7 11 -26 -9 -26 -8 0 -13 11 -13 25 0 16 5 25 16
25 12 0 13 -2 3 -9z m6828 -141 c0 -5 -5 -10 -11 -10 -5 0 -7 5 -4 10 3 6 8
10 11 10 2 0 4 -4 4 -10z m-1026 -32 l26 -33 0 33 c0 17 5 32 10 32 6 0 10
-25 10 -55 0 -30 -4 -55 -9 -55 -5 0 -20 17 -33 38 l-23 37 -3 -37 c-5 -58
-22 -45 -22 17 0 30 4 55 9 55 5 0 21 -15 35 -32z m347 -5 l13 -38 14 38 c13
33 32 50 32 30 0 -23 -36 -103 -46 -103 -10 0 -44 78 -44 102 0 22 20 4 31
-29z m266 21 c3 -9 1 -24 -4 -33 -7 -12 -8 -23 -1 -35 15 -27 -2 -34 -19 -8
-19 27 -33 28 -33 2 0 -11 -4 -20 -10 -20 -5 0 -10 25 -10 55 l0 55 35 0 c24
0 38 -5 42 -16z m138 -49 c0 -27 -4 -44 -10 -42 -12 4 -25 75 -17 95 9 26 26
-7 27 -53z m-627 33 c20 -20 14 -38 -13 -38 -14 0 -25 -5 -25 -11 0 -7 10 -9
25 -5 14 4 25 2 25 -3 0 -16 -20 -23 -46 -17 -18 5 -24 13 -24 34 0 29 16 52
35 52 6 0 16 -5 23 -12z m52 -21 c1 -19 3 -19 17 8 l16 30 12 -29 12 -29 7 27
c3 14 11 26 16 26 13 0 13 -4 -2 -51 -12 -43 -27 -50 -35 -19 -7 26 -23 26
-23 -1 0 -11 -5 -19 -12 -17 -13 5 -39 73 -31 82 10 10 23 -5 23 -27z m284 27
c23 -9 20 -26 -4 -19 -11 4 -20 2 -20 -4 0 -6 6 -11 14 -11 24 0 38 -26 22
-39 -18 -15 -48 -11 -53 6 -3 7 4 10 19 7 l23 -5 -22 17 c-25 18 -30 40 -10
47 6 3 13 6 14 6 1 1 8 -2 17 -5z m230 -10 c24 -23 19 -34 -14 -34 -16 0 -30
-5 -30 -11 0 -7 10 -9 25 -6 16 3 24 0 22 -7 -5 -16 -36 -20 -52 -6 -20 17
-19 57 3 69 23 14 28 14 46 -5z m106 -25 c0 -41 24 -33 28 9 4 44 22 30 22
-18 0 -37 -1 -38 -32 -37 -31 2 -33 4 -36 45 -2 29 0 42 7 37 6 -3 11 -20 11
-36z m110 29 c0 -4 -4 -8 -10 -8 -5 0 -10 -16 -10 -35 0 -19 -4 -35 -10 -35
-5 0 -10 19 -10 43 0 36 3 43 20 43 11 0 20 -4 20 -8z m84 -19 c5 -15 5 -35 1
-45 -7 -16 -9 -13 -14 16 -8 46 -35 48 -39 3 -5 -46 -22 -41 -22 5 0 46 2 49
37 48 20 -1 30 -8 37 -27z m119 22 c11 -2 8 -81 -3 -81 -5 0 -10 16 -10 36 0
45 -24 42 -28 -4 -5 -47 -22 -39 -22 11 0 41 2 43 28 41 15 -1 30 -2 35 -3z
m95 -51 c-3 -49 -5 -55 -27 -58 -13 -2 -28 2 -35 8 -8 9 -5 11 13 8 14 -2 26
3 29 11 3 8 0 11 -6 7 -19 -12 -42 6 -42 33 0 34 15 49 46 47 24 -1 25 -4 22
-56z m-178 10 c0 -22 -4 -40 -10 -40 -5 0 -10 18 -10 40 0 22 5 40 10 40 6 0
10 -18 10 -40z m-11585 -60 c0 -18 -6 -26 -21 -28 -26 -4 -40 24 -23 45 18 21
44 11 44 -17z m206 -60 c15 0 19 7 19 35 0 19 5 35 10 35 15 0 12 -53 -3 -74
-10 -13 -20 -16 -35 -12 -18 6 -22 14 -20 49 l1 42 4 -37 c3 -30 9 -38 24 -38z
m95 38 c5 -8 2 -9 -9 -5 -22 8 -22 -2 0 -18 17 -13 10 -35 -12 -35 -8 0 -17 5
-21 12 -5 8 -2 9 9 5 22 -8 22 2 0 18 -17 13 -10 35 12 35 8 0 17 -5 21 -12z
m64 8 c0 -2 3 -11 6 -20 4 -12 0 -16 -17 -17 l-24 -1 25 -7 c22 -6 23 -8 6
-14 -31 -12 -63 33 -39 56 7 8 43 10 43 3z m42 -8 c-5 -7 -12 -24 -15 -38 -3
-18 -5 -15 -6 13 -1 28 3 37 15 37 12 0 14 -3 6 -12z m63 2 c3 -6 -1 -7 -9 -4
-9 3 -16 1 -16 -5 0 -6 7 -11 15 -11 20 0 19 -29 -1 -37 -8 -3 -21 0 -27 7
-10 10 -8 12 5 7 10 -3 20 -2 23 3 4 6 -1 10 -9 10 -18 0 -29 16 -21 30 8 13
32 13 40 0z m-445 -38 c34 -28 17 -42 -51 -42 -53 0 -59 2 -59 20 0 38 73 52
110 22z m9031 -2 c123 -38 231 -129 287 -243 39 -78 52 -133 52 -222 0 -134
-39 -231 -131 -329 -122 -131 -304 -185 -474 -141 -72 19 -161 66 -157 84 1 7
-2 9 -9 6 -12 -8 -68 42 -102 90 -11 17 2 6 29 -22 28 -29 56 -53 64 -53 9 0
7 5 -6 14 -18 14 -18 15 -1 21 15 6 13 12 -17 45 -19 21 -39 49 -45 62 -11 21
-10 21 6 -2 38 -56 119 -124 181 -153 62 -30 75 -32 172 -32 97 0 110 2 172
32 263 124 329 453 133 662 -26 28 -66 61 -89 75 -47 27 -137 56 -177 56 -23
0 -27 5 -31 35 l-4 35 42 0 c23 0 70 -9 105 -20z m384 -20 c10 -11 16 -20 13
-20 -3 0 -13 9 -23 20 -10 11 -16 20 -13 20 3 0 13 -9 23 -20z m-6935 -745 l0
-745 -40 0 -40 0 0 218 c0 120 3 456 7 745 l6 527 34 0 33 0 0 -745z m2330 68
c0 -373 -3 -707 -6 -743 l-6 -65 -34 0 -34 0 0 743 0 742 40 0 40 0 0 -677z
m4696 532 c18 -38 41 -99 50 -135 23 -85 23 -244 1 -330 -24 -91 -89 -217
-143 -276 -25 -27 -32 -32 -16 -12 51 62 86 130 88 170 2 45 -9 49 -25 11 -6
-16 -20 -39 -31 -53 -11 -14 -4 6 15 44 43 88 65 183 65 284 0 87 -26 206 -60
272 -12 23 -17 39 -12 36 5 -3 16 -20 23 -38 l14 -33 6 40 c6 33 2 48 -22 90
-22 36 -24 43 -8 25 12 -14 37 -56 55 -95z m-5786 -638 l0 -703 -40 4 -40 4 0
699 0 699 40 0 40 0 0 -703z m2020 495 c0 -115 3 -432 7 -705 l6 -497 -41 0
-42 0 0 705 0 705 35 0 35 0 0 -208z m3258 101 c52 -22 118 -89 143 -146 62
-143 -9 -316 -154 -372 -85 -32 -207 -12 -277 46 l-25 21 27 -16 c25 -14 27
-14 31 2 2 9 -10 32 -27 51 l-31 35 44 -37 c56 -47 99 -60 172 -55 79 6 134
43 172 117 40 81 34 156 -20 229 -31 42 -64 63 -121 77 -39 10 -47 16 -48 36
0 13 1 28 4 32 5 9 66 -1 110 -20z m2877 -59 c19 -20 16 -43 -7 -58 -35 -22
-74 27 -48 59 16 19 35 19 55 -1z m-482 -9 c-3 -9 -8 -14 -10 -11 -3 3 -2 9 2
15 9 16 15 13 8 -4z m52 -6 c4 -12 2 -26 -5 -33 -8 -8 -10 -7 -4 7 3 9 1 24
-6 32 -8 9 -8 15 -2 15 6 0 14 -9 17 -21z m99 13 c7 -12 -5 -52 -15 -52 -5 0
-8 14 -7 30 2 29 12 38 22 22z m36 -22 c0 -32 -14 -40 -24 -14 -3 8 -2 12 4 9
6 -3 10 3 10 14 0 12 2 21 5 21 3 0 5 -13 5 -30z m426 -10 c2 -32 1 -33 -12
-15 -13 17 -16 18 -24 5 -7 -11 -10 -7 -10 18 0 29 3 33 22 30 18 -2 23 -10
24 -38z m100 -1 c1 -16 -2 -26 -7 -23 -5 3 -9 19 -9 36 0 39 14 28 16 -13z
m-8536 -589 l0 -620 -41 0 -42 0 4 620 4 620 38 0 37 0 0 -620z m8070 605 c9
-10 9 -15 1 -15 -6 0 -11 6 -11 13 0 8 -3 7 -9 -3 -12 -17 -4 -33 12 -24 9 5
9 4 0 -6 -14 -15 -33 -5 -33 19 0 32 20 40 40 16z m45 -33 c-8 -8 -25 17 -25
38 0 9 6 6 16 -8 9 -13 13 -26 9 -30z m34 33 c11 18 11 18 5 -5 -3 -14 -8 -27
-11 -30 -6 -7 -23 23 -22 40 0 10 3 8 8 -5 8 -19 8 -19 20 0z m346 4 c4 -6 4
-13 0 -17 -3 -3 -10 0 -15 8 -8 12 -10 10 -10 -9 0 -18 4 -22 18 -16 13 5 14
3 5 -6 -14 -14 -33 -3 -33 20 0 29 22 42 35 20z m142 -14 c-7 -13 -14 -20 -15
-14 -5 14 6 39 17 39 5 0 4 -11 -2 -25z m70 -6 l3 -24 -11 25 c-8 19 -12 22
-19 10 -5 -8 -6 -18 -4 -22 3 -4 0 -8 -5 -8 -15 0 -14 37 2 43 21 9 32 1 34
-24z m90 0 l3 -24 -11 25 -12 25 -7 -25 c-7 -22 -8 -22 -9 -4 -2 41 32 45 36
3z m61 -3 c4 -36 -13 -56 -30 -37 -9 10 -9 12 -1 7 6 -3 14 -2 18 4 3 5 -1 10
-9 10 -9 0 -16 8 -16 18 0 42 33 40 38 -2z m-278 -6 c5 0 11 8 13 18 4 13 5
12 6 -4 0 -12 -5 -24 -13 -27 -18 -7 -26 1 -25 27 1 17 2 18 6 4 2 -10 8 -18
13 -18z m157 -2 c-3 -7 -5 -2 -5 12 0 14 2 19 5 13 2 -7 2 -19 0 -25z m-893
-17 c-2 -3 -12 3 -22 13 -16 17 -16 18 5 5 12 -7 20 -15 17 -18z m-8784 -599
l0 -577 -32 0 -33 0 -6 65 c-3 36 -6 296 -7 578 l-2 512 40 0 40 0 0 -578z
m-2623 546 c32 -30 31 -81 -2 -113 -33 -34 -70 -32 -107 5 -25 26 -29 36 -24
63 12 64 86 89 133 45z m192 -22 c15 -18 3 -46 -19 -46 -10 0 -21 -8 -23 -17
-3 -10 -5 3 -6 30 -1 40 2 47 18 47 10 0 24 -6 30 -14z m171 4 c0 -5 -2 -10
-4 -10 -3 0 -8 5 -11 10 -3 6 -1 10 4 10 6 0 11 -4 11 -10z m-127 -28 c-6 -4
-13 -18 -16 -32 -4 -22 -4 -21 -6 7 0 17 5 33 12 36 16 6 24 -2 10 -11z m97
-2 c0 -5 -9 -6 -21 -3 -17 5 -20 2 -17 -13 2 -11 11 -18 21 -18 9 1 17 -3 17
-8 0 -5 -10 -8 -22 -6 -26 3 -35 32 -18 53 11 14 40 10 40 -5z m100 -32 c0
-10 -4 -18 -10 -18 -5 0 -10 11 -10 25 0 14 -4 25 -10 25 -5 0 -10 -11 -10
-25 0 -14 -4 -25 -10 -25 -18 0 -11 58 8 63 20 4 42 -19 42 -45z m70 7 c0 -40
-21 -61 -47 -46 -16 9 -15 10 7 11 25 1 25 1 3 10 -40 16 -23 73 18 63 14 -4
19 -14 19 -38z m-230 5 c0 -16 -4 -30 -10 -30 -5 0 -10 14 -10 30 0 17 5 30
10 30 6 0 10 -13 10 -30z m90 0 c0 -16 -4 -30 -10 -30 -5 0 -10 14 -10 30 0
17 5 30 10 30 6 0 10 -13 10 -30z m5530 -302 c0 -178 -3 -420 -7 -538 l-6
-215 -34 0 -33 0 0 538 0 537 40 0 40 0 0 -322z m-1241 -223 l4 -535 -42 0
-41 0 0 535 0 535 38 0 37 0 4 -535z m7925 353 c-27 -55 -32 -51 -8 6 3 9 -2
16 -13 19 -12 3 -9 5 10 6 l28 1 -17 -32z m64 -1 c2 -18 -2 -29 -13 -33 -23
-9 -34 6 -28 39 7 36 37 32 41 -6z m42 22 c0 -8 6 -7 17 2 15 13 15 12 5 -8
-10 -17 -9 -22 5 -27 12 -5 13 -10 5 -18 -8 -8 -15 -8 -26 1 -11 9 -15 9 -20
-1 -3 -7 -3 -3 0 10 3 12 1 22 -5 22 -6 0 -11 7 -11 15 0 8 7 15 15 15 8 0 15
-5 15 -11z m-4220 -99 c6 -11 8 -20 6 -20 -3 0 -10 9 -16 20 -6 11 -8 20 -6
20 3 0 10 -9 16 -20z m940 -124 c0 -2 -8 -10 -17 -17 -16 -13 -17 -12 -4 4 13
16 21 21 21 13z m-9362 -78 l3 -68 -96 0 -95 0 0 70 0 71 93 -3 92 -3 3 -67z
m11555 55 c-7 -2 -21 -2 -30 0 -10 3 -4 5 12 5 17 0 24 -2 18 -5z m54 1 c-3
-3 -12 -4 -19 -1 -8 3 -5 6 6 6 11 1 17 -2 13 -5z m-11447 -29 c14 -17 0 -21
-17 -4 -16 16 -33 2 -33 -28 0 -23 3 -25 32 -19 30 6 31 5 16 -10 -34 -34 -82
12 -58 56 13 24 42 26 60 5z m183 -2 c4 -3 2 -13 -5 -20 -9 -11 -9 -19 1 -35
10 -16 10 -19 0 -16 -14 5 -30 63 -21 73 7 7 17 6 25 -2z m172 -36 c2 -38 -8
-49 -19 -21 -3 9 -6 27 -6 41 0 39 22 22 25 -20z m-281 11 c13 -22 -14 -54
-38 -45 -16 6 -22 48 -9 61 11 11 35 3 47 -16z m63 -18 c1 -34 1 -34 -5 -5 -4
17 -12 30 -17 30 -5 0 -13 -13 -16 -30 -6 -29 -7 -28 -8 8 -1 34 1 38 22 35
18 -2 22 -10 24 -38z m111 4 c3 -27 0 -31 -20 -30 -26 1 -39 36 -14 36 9 0 16
4 16 10 0 5 -7 6 -17 3 -11 -4 -14 -3 -9 6 14 23 41 7 44 -25z m68 25 c4 -8 0
-9 -15 -4 -16 5 -21 2 -21 -13 0 -26 11 -34 28 -19 13 10 14 9 10 -3 -6 -20
-38 -19 -51 2 -8 12 -7 21 2 32 16 19 37 21 47 5z m100 -1 c5 -8 2 -9 -9 -5
-22 8 -22 -2 0 -18 17 -13 10 -35 -12 -35 -8 0 -17 5 -21 12 -5 8 -2 9 9 5 22
-8 22 2 0 18 -17 13 -10 35 12 35 8 0 17 -5 21 -12z m11177 -15 c-51 -2 -136
-2 -190 0 -54 1 -12 3 92 3 105 0 149 -2 98 -3z m-457 -158 c4 -8 1 -22 -5
-29 -9 -11 -9 -15 1 -19 7 -3 3 -6 -9 -6 -28 -1 -29 6 -5 32 16 19 16 20 0 14
-18 -6 -24 3 -11 16 11 11 23 8 29 -8z m55 8 c0 -5 2 -19 5 -32 2 -14 -1 -28
-7 -32 -21 -12 -39 2 -37 29 2 35 6 42 24 42 8 0 14 -3 15 -7z m67 0 c13 10
14 9 4 -10 -9 -16 -9 -22 0 -25 7 -3 9 -12 4 -23 -5 -13 -10 -15 -18 -7 -6 6
-18 8 -27 5 -13 -5 -14 -3 -4 7 9 10 9 17 2 26 -14 17 -1 40 14 25 7 -7 15 -7
25 2z m-13073 -138 c6 0 11 12 13 28 2 15 7 27 11 27 10 0 1 -59 -11 -66 -16
-10 -38 17 -37 45 1 25 2 25 8 -4 3 -16 11 -30 16 -30z m347 30 c6 -26 -14
-51 -32 -40 -5 3 -10 19 -10 36 0 38 35 42 42 4z m-265 -15 c3 -24 -8 -32 -27
-18 -12 8 -12 9 3 4 22 -7 22 10 0 18 -15 6 -15 8 -3 16 17 11 23 6 27 -20z
m63 15 c9 -10 9 -15 1 -15 -6 0 -11 6 -11 13 0 8 -3 7 -9 -3 -12 -17 -4 -33
11 -24 7 4 8 2 4 -4 -10 -16 -36 -3 -36 17 0 32 20 40 40 16z m37 -10 c-7 -13
-14 -20 -15 -14 -5 14 6 39 17 39 5 0 4 -11 -2 -25z m59 -3 c4 -26 -7 -34 -26
-20 -12 8 -12 9 3 4 9 -3 17 -1 17 4 0 6 -4 10 -10 10 -5 0 -10 7 -10 16 0 23
23 12 26 -14z m155 9 c7 11 9 11 9 -2 0 -8 -6 -23 -13 -33 -10 -13 -14 -14
-14 -5 0 8 -3 25 -7 39 -6 22 -6 23 5 6 9 -15 13 -16 20 -5z m-331 -141 c0 -5
-9 -10 -20 -10 -17 0 -20 -7 -20 -45 0 -25 -4 -45 -10 -45 -5 0 -10 20 -10 45
0 33 -4 45 -15 45 -8 0 -15 5 -15 10 0 6 20 10 45 10 25 0 45 -4 45 -10z m30
0 c0 -5 -4 -10 -10 -10 -5 0 -10 5 -10 10 0 6 5 10 10 10 6 0 10 -4 10 -10z
m358 -2 c24 -31 23 -57 -2 -83 -22 -21 -29 -24 -46 -15 -35 19 -46 55 -26 85
18 27 57 34 74 13z m74 3 c-7 -4 -12 -12 -11 -17 1 -5 1 -26 0 -46 -1 -44 -21
-52 -21 -9 0 17 -4 33 -10 36 -15 9 12 45 35 45 14 0 16 -3 7 -9z m130 -8 c38
-34 15 -93 -37 -93 l-35 0 0 55 c0 53 1 55 27 55 14 0 35 -7 45 -17z m12338
-23 l0 -40 -302 0 c-167 0 -312 3 -324 6 -16 4 -19 12 -16 34 3 21 -1 29 -15
33 -10 3 134 5 320 6 l337 1 0 -40z m-12900 -30 c0 -22 -4 -40 -10 -40 -5 0
-10 18 -10 40 0 22 5 40 10 40 6 0 10 -18 10 -40z m128 -2 c2 -22 -1 -38 -7
-38 -6 0 -11 14 -11 30 0 20 -5 30 -15 30 -10 0 -15 -10 -15 -30 0 -16 -4 -30
-10 -30 -5 0 -10 14 -10 30 0 17 -4 30 -10 30 -5 0 -10 -13 -10 -30 0 -16 -4
-30 -10 -30 -5 0 -10 18 -10 40 l0 40 53 -3 52 -2 3 -37z m90 15 c3 -19 -1
-23 -23 -23 -16 0 -24 -4 -20 -10 4 -6 16 -8 28 -5 21 6 21 5 3 -9 -26 -21
-56 -4 -56 33 0 35 8 43 40 39 17 -2 26 -10 28 -25z m440 -16 c3 -38 3 -38
-30 -35 -42 4 -51 34 -14 44 14 3 24 10 21 14 -3 5 -15 6 -27 2 -15 -4 -19 -2
-14 7 5 7 20 11 34 9 23 -3 27 -8 30 -41z m43 12 l6 -24 11 28 c21 51 32 28
12 -25 -11 -29 -20 -54 -20 -55 0 -2 -7 -3 -16 -3 -13 0 -14 3 -5 14 9 11 8
23 -4 51 -18 45 -18 48 -3 43 7 -3 15 -15 19 -29z m10280 -48 c29 -24 18 -39
-15 -22 -25 14 -46 8 -46 -11 0 -6 9 -8 19 -5 56 14 81 -63 30 -92 -24 -13
-29 -13 -53 2 -22 15 -26 25 -26 62 0 32 6 51 20 65 25 25 41 25 71 1z m130
-34 c-1 -29 2 -47 8 -47 15 0 14 -19 -3 -36 -17 -16 -36 -19 -36 -4 0 6 -13
10 -30 10 -39 0 -39 20 1 83 40 64 65 62 60 -6z m-1892 -14 c12 -23 -4 -53
-29 -53 -26 0 -45 36 -29 56 16 19 46 18 58 -3z m131 7 c0 -5 -7 -7 -15 -4 -8
4 -15 1 -15 -5 0 -6 7 -11 15 -11 20 0 19 -29 -1 -37 -8 -3 -21 0 -27 7 -9 10
-8 12 5 7 25 -9 30 4 8 20 -11 8 -18 19 -15 24 8 12 45 12 45 -1z m338 -8 c2
-7 -5 -16 -16 -19 -12 -3 -23 -12 -25 -22 -3 -9 -5 1 -6 22 -1 34 2 38 21 35
12 -2 23 -9 26 -16z m43 8 c10 -6 19 -21 18 -33 0 -21 -1 -21 -11 3 -11 25
-11 25 -15 3 -6 -34 -23 -28 -23 7 0 33 3 35 31 20z m1462 -3 c-3 -4 1 -14 7
-22 14 -17 3 -42 -12 -27 -6 6 -17 8 -24 5 -10 -3 -12 0 -8 10 3 8 0 18 -5 22
-17 10 -4 23 23 21 13 0 22 -5 19 -9z m-1756 -32 c1 -20 0 -23 -4 -7 -2 12 -9
22 -14 22 -5 0 -10 -10 -10 -22 l-2 -23 -4 23 c-2 12 -9 22 -14 22 -5 0 -10
-10 -10 -22 -1 -18 -2 -19 -6 -5 -8 31 4 46 34 44 24 -2 28 -7 30 -32z m58 4
c0 -15 -7 -25 -17 -27 -11 -2 -18 3 -18 12 0 9 5 16 10 16 6 0 10 5 10 11 0 5
-5 7 -12 3 -7 -4 -8 -3 -4 5 12 19 31 7 31 -20z m36 0 c-9 -22 -10 -22 -10 -3
-1 11 2 24 6 27 12 12 14 0 4 -24z m51 1 c3 -16 1 -30 -4 -30 -4 0 -8 6 -8 14
0 8 -3 21 -6 30 -3 9 -2 16 4 16 5 0 12 -13 14 -30z m226 6 c6 -27 -14 -42
-32 -27 -12 10 -13 18 -5 33 12 22 32 19 37 -6z m61 -9 c-1 -17 -2 -18 -6 -4
-6 24 -21 21 -26 -5 -4 -20 -4 -20 -6 4 -1 25 15 41 32 31 4 -2 6 -14 6 -26z
m64 -8 c-7 -25 -36 -21 -41 5 -5 22 18 39 34 25 7 -5 10 -19 7 -30z m1095
-275 c-4 -82 -22 -89 -26 -10 -3 48 -5 53 -23 49 -27 -7 -15 21 14 35 32 15
38 2 35 -74z m120 70 c44 -31 19 -144 -32 -144 -20 0 -63 37 -53 46 4 4 18 2
31 -5 24 -14 46 -8 46 11 0 5 -7 7 -16 4 -25 -10 -64 20 -64 49 0 23 32 55 55
55 6 0 21 -7 33 -16z m-1934 -40 c29 -29 12 -64 -31 -64 -31 0 -44 47 -18 67
24 17 30 16 49 -3z m114 -52 c16 -13 15 -14 -3 -10 -15 2 -20 12 -22 38 -1 23
1 26 4 10 2 -14 12 -31 21 -38z m177 18 c0 -15 -3 -26 -7 -23 -5 2 -8 18 -8
35 0 17 3 28 8 24 4 -4 7 -20 7 -36z m1731 24 c-2 -6 0 -16 6 -22 6 -6 7 -16
3 -22 -5 -8 -11 -8 -17 -2 -6 6 -18 8 -27 4 -14 -5 -14 -4 -2 11 9 11 10 17 2
17 -6 0 -11 6 -11 14 0 9 10 13 25 12 14 0 23 -6 21 -12z m-1836 -30 c0 -18
-5 -25 -17 -22 -19 3 -31 28 -13 28 6 0 8 -4 5 -10 -3 -5 -1 -10 4 -10 6 0 11
9 11 20 0 14 -5 18 -17 14 -15 -5 -15 -4 -3 4 19 14 30 6 30 -24z m70 -1 c0
-7 -8 -17 -17 -20 -10 -4 -21 -11 -25 -17 -4 -6 -8 6 -8 26 0 20 6 38 13 41
15 6 37 -11 37 -30z m100 7 c0 -27 -19 -35 -38 -17 -12 13 -13 19 -3 31 16 19
41 10 41 -14z m64 -13 c-3 -9 -12 -17 -19 -17 -7 0 -16 -6 -18 -12 -3 -7 -6 4
-6 24 -1 21 4 38 12 41 18 7 39 -17 31 -36z m-5554 23 c0 -5 -9 -19 -20 -30
-36 -36 -53 -23 -24 18 15 22 44 30 44 12z m1160 -50 l0 -60 -55 0 -55 0 0 60
0 60 55 0 55 0 0 -60z m1027 40 c74 -45 83 -139 19 -197 -30 -28 -76 -45 -76
-29 0 23 23 55 42 58 24 3 44 35 54 87 6 30 6 31 -32 31 l-39 0 -30 -86 c-16
-47 -33 -88 -37 -90 -4 -3 -24 11 -45 30 -35 32 -38 38 -38 91 0 52 3 59 33
87 19 16 36 28 38 25 2 -2 -9 -40 -26 -85 -18 -48 -26 -84 -20 -87 11 -7 30 2
30 14 0 15 31 83 36 79 2 -3 -3 -21 -11 -41 -19 -47 -19 -59 2 -55 9 2 23 25
34 57 18 52 18 53 -1 58 -11 3 -20 6 -20 8 0 1 5 16 11 34 13 36 31 39 76 11z
m5143 10 c-13 -9 -13 -11 0 -20 9 -6 10 -10 3 -10 -15 0 -26 17 -18 30 3 6 12
10 18 10 7 0 6 -4 -3 -10z m-7290 -65 c7 -9 6 -16 -5 -25 -21 -17 -19 -42 5
-73 l20 -25 -29 -31 c-24 -26 -33 -30 -53 -22 -13 5 -33 5 -46 0 -31 -12 -56
3 -76 45 -20 43 -21 95 -1 123 13 19 24 21 95 21 51 0 83 -5 90 -13z m3088 -7
c7 -7 12 -25 12 -42 0 -61 67 -96 118 -60 30 21 28 34 -8 34 -23 0 -30 4 -30
20 0 18 7 20 55 20 43 0 55 -3 55 -15 0 -29 -28 -82 -51 -99 -29 -20 -91 -21
-128 -1 -38 19 -65 77 -56 121 6 36 14 41 33 22z m-940 -35 c-14 -34 -35 -58
-23 -28 4 11 10 28 12 38 3 9 9 17 14 17 5 0 3 -12 -3 -27z m-4791 1 c3 -8 1
-20 -5 -26 -8 -8 -9 -5 -5 11 5 21 4 21 -167 21 -171 0 -172 0 -167 -21 4 -16
3 -19 -5 -11 -6 6 -8 18 -5 26 9 24 345 24 354 0z m3763 -74 l0 -60 -60 0 -60
0 0 53 c0 30 3 57 7 60 3 4 30 7 60 7 l53 0 0 -60z m-140 -5 l0 -55 -55 0 -55
0 0 55 0 55 55 0 55 0 0 -55z m5940 -111 c0 -56 -3 -75 -12 -72 -8 3 -14 27
-16 62 -3 49 -5 56 -18 46 -11 -10 -14 -10 -14 2 0 19 20 38 42 38 16 0 18 -9
18 -76z m140 71 c0 -14 -71 -145 -78 -145 -20 0 -18 14 9 63 16 29 29 55 29
60 0 4 -16 7 -35 7 -19 0 -35 5 -35 10 0 6 25 10 55 10 30 0 55 -2 55 -5z
m-9702 -42 l3 -23 -175 0 c-175 0 -194 4 -182 36 5 12 33 14 178 12 171 -3
173 -3 176 -25z m565 20 c3 -5 -70 -8 -161 -8 -103 0 -168 -4 -169 -10 -2 -6
59 -10 167 -10 94 0 170 -3 170 -7 0 -11 -348 -10 -354 1 -4 5 -3 16 0 25 5
14 30 16 174 16 93 0 171 -3 173 -7z m7168 -13 c25 -14 25 -56 -1 -70 -45 -24
-86 44 -42 69 21 13 20 13 43 1z m132 -7 c-7 -2 -14 -19 -14 -36 l-2 -32 -4
30 c-3 16 -10 33 -16 37 -7 4 2 7 18 7 17 0 24 -3 18 -6z m125 -38 c-2 -12
-11 -20 -23 -20 -15 0 -21 8 -23 32 -3 31 -2 31 23 20 17 -8 25 -19 23 -32z
m29 -7 c-2 -13 -4 -5 -4 17 -1 22 1 32 4 23 2 -10 2 -28 0 -40z m1739 36 c-2
-6 0 -16 6 -22 6 -6 7 -16 3 -22 -5 -8 -11 -8 -17 -2 -6 6 -18 8 -27 4 -14 -5
-14 -4 -2 11 9 11 10 17 2 17 -6 0 -11 6 -11 14 0 9 10 13 25 12 14 0 23 -6
21 -12z m-1836 -30 c0 -18 -5 -25 -17 -22 -23 4 -28 28 -6 29 17 1 17 2 -1 6
-15 4 -16 7 -5 13 19 12 29 3 29 -26z m197 6 c0 -16 -4 -27 -9 -24 -4 3 -8 16
-8 30 0 13 4 24 8 24 5 0 9 -13 9 -30z m-39 -2 c-2 -13 -10 -23 -18 -23 -8 0
-16 10 -18 23 -3 17 2 22 18 22 16 0 21 -5 18 -22z m-4275 -109 c-6 -32 -7
-33 -13 -9 -4 14 -2 31 3 38 15 19 18 9 10 -29z m-1357 15 c-3 -8 -2 -13 3
-10 5 3 11 -3 14 -15 5 -17 3 -18 -10 -8 -12 10 -16 10 -24 -2 -10 -16 -11 -4
-3 29 4 12 11 22 16 22 6 0 7 -7 4 -16z m161 -31 c-3 -10 -5 -2 -5 17 0 19 2
27 5 18 2 -10 2 -26 0 -35z m825 5 c-10 -22 -11 -21 -11 12 -1 26 2 31 11 22
8 -8 8 -17 0 -34z m47 10 c0 -18 -3 -27 -6 -19 -4 11 -7 11 -14 0 -4 -7 -11
-11 -14 -7 -6 6 22 58 31 58 2 0 4 -15 3 -32z m363 2 c5 -36 -8 -41 -14 -5 -4
21 -1 35 8 35 1 0 4 -13 6 -30z m843 10 c7 0 16 6 18 13 3 6 5 -4 5 -23 0 -19
-2 -27 -5 -17 -2 9 -8 17 -13 17 -5 0 -14 -8 -19 -17 -8 -15 -10 -11 -10 17 0
19 3 29 6 23 2 -7 11 -13 18 -13z m92 4 c2 -6 -8 -19 -22 -28 -25 -16 -25 -16
-25 14 0 27 3 31 22 28 12 -2 23 -8 25 -14z m923 7 c0 -5 -8 -8 -17 -7 -21 1
-24 -25 -4 -32 8 -3 11 0 7 7 -4 6 -2 11 3 11 6 0 11 -7 11 -15 0 -8 -9 -15
-20 -15 -23 0 -35 22 -26 45 6 16 46 21 46 6z m207 -38 c-3 -10 -5 -2 -5 17 0
19 2 27 5 18 2 -10 2 -26 0 -35z m-6477 13 c0 -13 -7 -27 -16 -30 -9 -3 -84
-6 -169 -6 -123 0 -155 3 -165 15 -7 8 -10 22 -6 30 4 13 33 15 181 15 l175 0
0 -24z m568 0 c2 -10 -2 -22 -10 -27 -15 -10 -308 -12 -332 -3 -16 6 -22 35
-9 48 4 3 84 5 177 4 158 -3 171 -4 174 -22z m576 8 c15 -38 -9 -44 -179 -44
-132 0 -165 3 -175 15 -7 8 -10 22 -6 30 4 13 33 15 180 15 151 0 175 -2 180
-16z m1943 5 c14 -14 6 -39 -12 -39 -7 0 -16 -6 -18 -12 -3 -7 -6 1 -6 18 -1
42 13 56 36 33z m60 0 c14 -14 6 -39 -12 -39 -7 0 -16 -6 -18 -12 -3 -7 -6 1
-6 18 -1 42 13 56 36 33z m91 -7 c2 -7 -5 -12 -15 -12 -15 0 -16 -2 -3 -10 13
-8 12 -10 -2 -10 -18 0 -25 30 -11 44 9 9 26 2 31 -12z m892 7 c0 -5 -4 -7
-10 -4 -5 3 -10 0 -10 -9 0 -8 6 -17 13 -19 7 -3 5 -6 -5 -6 -18 -1 -25 28
-11 42 10 10 23 8 23 -4z m37 -14 c-7 -13 -14 -20 -15 -14 -5 14 6 39 17 39 5
0 4 -11 -2 -25z m58 -1 c0 -10 -8 -20 -17 -22 -18 -3 -26 27 -11 42 12 11 28
0 28 -20z m53 1 c0 -17 -6 -25 -17 -24 -12 0 -12 2 -2 6 10 4 11 7 1 13 -7 4
-9 13 -6 19 12 19 24 12 24 -14z m57 -1 c0 -10 -8 -20 -17 -22 -18 -3 -26 27
-11 42 12 11 28 0 28 -20z m1993 -2 c2 -14 -2 -22 -12 -22 -19 0 -29 17 -22
36 8 22 30 12 34 -14z m59 12 c8 -21 -13 -42 -28 -27 -13 13 -5 43 11 43 6 0
13 -7 17 -16z m58 -20 c0 -19 -6 -30 -17 -32 -14 -3 -18 3 -18 26 0 16 3 32 7
36 14 13 28 -1 28 -30z m81 24 c4 -6 2 -14 -5 -16 -11 -4 -11 -6 0 -13 11 -7
10 -9 -3 -9 -21 0 -30 13 -22 34 7 19 20 21 30 4z m-2449 -30 c-3 -7 -5 -2 -5
12 0 14 2 19 5 13 2 -7 2 -19 0 -25z m-4649 -132 c2 -10 -2 -22 -10 -27 -7 -5
-84 -9 -170 -9 -127 0 -159 3 -172 15 -8 9 -13 22 -9 31 4 12 33 14 182 12
163 -3 176 -4 179 -22z m576 9 c3 -8 -2 -21 -10 -30 -13 -12 -45 -15 -169 -15
-84 0 -160 3 -169 6 -16 6 -22 35 -9 47 3 4 84 7 179 7 142 0 173 -3 178 -15z
m566 -9 c0 -13 -7 -27 -16 -30 -20 -8 -308 -8 -328 0 -9 3 -16 17 -16 30 l0
24 180 0 180 0 0 -24z m576 9 c4 -8 1 -22 -6 -30 -10 -12 -43 -15 -175 -15
-132 0 -165 3 -175 15 -7 8 -10 22 -6 30 4 13 33 15 181 15 148 0 177 -2 181
-15z m-1732 -131 c21 -8 21 -50 0 -58 -9 -3 -87 -6 -174 -6 -147 0 -160 1
-170 19 -7 15 -6 23 6 35 13 13 43 16 169 16 84 0 160 -3 169 -6z m580 -10
c12 -12 13 -20 6 -35 -10 -18 -23 -19 -170 -19 -87 0 -165 3 -174 6 -19 7 -21
50 -3 57 6 3 83 6 169 6 130 1 159 -2 172 -15z m570 0 c9 -8 16 -17 16 -19 0
-2 -7 -11 -16 -19 -13 -13 -43 -16 -169 -16 -84 0 -160 3 -169 6 -19 7 -21 50
-3 57 6 3 83 6 169 6 130 1 159 -2 172 -15z m572 2 c15 -12 17 -18 8 -33 -10
-16 -28 -18 -179 -18 -146 0 -169 2 -178 17 -8 12 -7 21 2 32 19 22 317 24
347 2z m570 0 c15 -12 17 -18 8 -33 -10 -16 -29 -18 -165 -21 -172 -3 -199 0
-199 26 0 38 19 42 180 42 120 0 161 -3 176 -14z m-2292 -142 c9 -3 16 -16 16
-29 0 -13 -7 -26 -16 -29 -27 -10 -314 -7 -335 4 -22 12 -25 30 -7 48 13 13
311 18 342 6z m590 -17 c9 -15 7 -21 -8 -33 -15 -11 -55 -14 -172 -14 -84 0
-159 3 -168 6 -19 7 -21 50 -3 57 6 3 86 5 176 4 146 -2 165 -4 175 -20z m560
7 c9 -8 16 -17 16 -19 0 -2 -7 -11 -16 -19 -23 -24 -325 -24 -348 0 -9 8 -16
17 -16 19 0 2 7 11 16 19 23 24 325 24 348 0z m577 0 c9 -11 10 -20 2 -32 -9
-15 -32 -17 -178 -17 -146 0 -169 2 -178 17 -8 12 -7 21 2 32 20 24 332 24
352 0z m570 0 c9 -11 10 -20 2 -32 -9 -14 -33 -17 -164 -20 -182 -3 -199 0
-199 32 0 14 6 27 13 29 6 3 85 6 173 6 136 1 164 -2 175 -15z m979 -154 c0
-5 -4 -10 -9 -10 -4 0 -6 -11 -3 -25 2 -15 0 -25 -7 -25 -6 0 -11 9 -11 19 0
11 -3 26 -6 35 -4 12 0 16 15 16 12 0 21 -4 21 -10z m95 -35 c0 -14 -3 -25 -7
-25 -4 0 -8 14 -8 32 0 36 13 30 15 -7z m92 -12 c-3 -10 -5 -2 -5 17 0 19 2
27 5 18 2 -10 2 -26 0 -35z m180 0 c-3 -10 -5 -2 -5 17 0 19 2 27 5 18 2 -10
2 -26 0 -35z m-309 9 c3 -16 -2 -22 -17 -22 -24 0 -33 13 -25 35 9 23 38 14
42 -13z m100 0 c2 -12 -1 -22 -7 -22 -6 0 -14 -1 -18 -2 -4 -2 -9 10 -10 25
-1 22 2 28 15 25 9 -2 18 -13 20 -26z m113 19 c-9 -6 -10 -11 -2 -15 19 -12
12 -26 -11 -25 -21 0 -21 1 -4 8 18 7 18 8 2 14 -21 8 -12 27 12 27 13 0 14
-2 3 -9z m67 -19 c2 -12 -1 -22 -7 -22 -6 0 -14 -1 -18 -2 -4 -2 -9 10 -10 25
-1 22 2 28 15 25 9 -2 18 -13 20 -26z m90 10 c2 -7 -5 -12 -15 -13 -16 0 -16
-1 2 -9 19 -8 19 -9 -2 -9 -16 -1 -23 5 -23 17 0 32 28 42 38 14z m44 9 c-11
-7 -11 -9 2 -14 24 -9 19 -27 -6 -27 -17 0 -19 3 -9 9 9 6 10 11 2 15 -13 9
-5 26 12 26 8 0 8 -3 -1 -9z m-437 -147 c14 -9 25 -23 25 -30 0 -17 -27 -18
-33 -1 -3 6 -6 2 -6 -10 -1 -13 7 -24 19 -28 26 -8 28 -63 3 -72 -10 -4 -21
-11 -24 -16 -8 -11 -69 28 -69 44 0 13 24 11 38 -3 9 -9 12 -8 12 6 0 10 -11
27 -25 38 -32 25 -32 41 1 67 32 25 29 25 59 5z m113 -72 c2 -59 0 -72 -13
-72 -12 0 -15 12 -15 56 0 51 -2 55 -20 49 -25 -8 -27 13 -2 31 35 28 47 13
50 -64z m122 28 c0 -27 5 -50 10 -50 15 0 12 -19 -4 -36 -17 -16 -36 -19 -36
-4 0 6 -13 10 -29 10 -17 0 -33 4 -36 10 -9 14 62 120 80 120 11 0 15 -12 15
-50z m134 28 c11 -15 12 -26 5 -39 -6 -11 -6 -20 1 -24 15 -9 12 -41 -5 -55
-21 -17 -64 -16 -83 4 -22 22 -7 32 23 16 18 -10 28 -11 36 -3 14 14 3 33 -17
33 -23 0 -16 27 8 34 18 4 20 8 11 17 -10 10 -18 10 -38 -1 -32 -17 -44 -6
-20 20 24 26 60 25 79 -2z m180 1 c17 -25 12 -44 -22 -81 l-26 -28 32 0 c18 0
32 -4 32 -10 0 -5 -25 -10 -55 -10 -30 0 -55 3 -55 6 0 4 18 27 41 51 30 32
38 48 30 56 -8 8 -18 7 -36 -3 -32 -17 -44 -6 -20 20 24 26 60 26 79 -1z m136
7 c0 -9 -12 -16 -32 -18 -17 -2 -33 -9 -36 -17 -3 -9 1 -11 16 -7 25 8 66 -28
58 -51 -3 -8 -6 -18 -6 -22 0 -4 -11 -13 -24 -19 -25 -11 -66 2 -74 26 -5 15
20 16 36 0 15 -15 43 7 35 29 -4 10 -14 13 -34 9 -35 -7 -40 1 -32 47 5 36 7
37 49 37 32 0 44 -4 44 -14z m114 -5 c19 -20 23 -62 12 -99 -14 -42 -76 -49
-97 -11 -8 16 -6 19 10 19 11 0 22 -4 26 -10 8 -12 35 -1 35 15 0 8 -9 10 -27
7 -18 -3 -30 1 -40 13 -18 26 -16 42 7 65 25 25 52 26 74 1z m178 2 c26 -23
25 -96 -3 -124 -38 -38 -89 -3 -89 63 0 64 51 98 92 61z m124 9 c39 -26 44
-93 9 -127 -30 -31 -40 -31 -72 1 -22 22 -25 32 -20 67 7 54 47 83 83 59z
m-3250 -107 c4 -8 14 -15 24 -15 21 0 34 -28 20 -45 -6 -7 -6 -15 1 -22 16
-16 -1 -44 -22 -38 -13 4 -19 1 -19 -9 0 -19 -46 -22 -52 -4 -3 7 -13 13 -24
13 -16 0 -19 7 -19 50 0 44 3 50 23 53 12 2 22 10 22 18 0 19 39 18 46 -1z
m3014 -20 c0 -8 -7 -15 -15 -15 -8 0 -15 7 -15 15 0 8 7 15 15 15 8 0 15 -7
15 -15z m-434 -17 c-3 -13 -6 -26 -6 -30 0 -5 -4 -8 -10 -8 -5 0 -10 14 -10
30 0 21 5 30 16 30 12 0 15 -6 10 -22z m-2356 3 c0 -5 -9 -7 -20 -4 -12 3 -20
0 -20 -7 0 -6 9 -14 19 -17 26 -7 33 -29 16 -43 -17 -14 -45 -7 -45 11 0 8 4
9 13 0 8 -6 17 -8 20 -4 12 11 8 23 -7 23 -19 0 -29 17 -22 35 6 16 46 21 46
6z m113 -8 c4 -3 2 -13 -5 -20 -9 -11 -9 -19 1 -35 10 -16 10 -19 0 -16 -14 5
-30 63 -21 73 7 7 17 6 25 -2z m41 -36 c1 -48 -18 -42 -22 7 -2 27 0 37 9 34
6 -2 12 -21 13 -41z m-86 10 c2 -12 -3 -17 -18 -17 -12 0 -19 -4 -15 -10 3 -5
13 -6 23 -3 13 5 15 3 5 -7 -17 -18 -43 -5 -43 23 0 13 3 27 7 31 12 12 38 2
41 -17z m109 -29 c-2 -13 -4 -5 -4 17 -1 22 1 32 4 23 2 -10 2 -28 0 -40z m70
12 c1 -34 1 -34 -5 -5 -4 17 -12 30 -17 30 -5 0 -13 -13 -16 -30 -6 -29 -7
-28 -8 8 -1 34 1 38 22 35 18 -2 22 -10 24 -38z m73 -5 c0 -41 -2 -45 -25 -45
-14 0 -25 4 -25 9 0 5 9 7 20 4 12 -3 20 0 20 6 0 7 -5 9 -12 5 -6 -4 -17 1
-24 11 -17 23 -1 55 26 55 17 0 20 -7 20 -45z m60 35 c0 -5 -8 -7 -17 -4 -12
4 -10 0 6 -14 13 -11 21 -24 17 -31 -9 -14 -33 -14 -42 1 -5 8 -2 9 9 5 22 -8
22 2 0 18 -9 7 -13 17 -9 23 9 14 36 16 36 2z m-620 -445 c7 -9 29 -15 51 -15
21 0 41 -5 44 -10 12 -19 -16 -40 -47 -36 -17 2 -43 -4 -58 -12 -27 -15 -30
-15 -49 2 -25 23 -27 43 -4 68 20 22 46 23 63 3z m265 -55 c7 -23 6 -24 -9
-11 -14 12 -21 12 -38 2 -18 -11 -19 -10 -13 11 4 13 12 34 17 48 l10 25 13
-25 c7 -14 16 -36 20 -50z m109 10 c1 -44 -18 -30 -22 16 -3 31 -1 36 9 27 7
-7 13 -26 13 -43z m36 38 c0 -6 3 -8 7 -5 3 4 12 2 20 -4 15 -13 18 -59 3 -59
-5 0 -10 11 -10 25 0 14 -4 25 -10 25 -5 0 -10 -11 -10 -25 0 -14 -4 -25 -10
-25 -5 0 -10 18 -10 40 0 22 5 40 10 40 6 0 10 -5 10 -12z m205 -19 c-4 -11
-1 -26 5 -34 10 -12 9 -15 -3 -15 -9 0 -16 12 -19 28 -5 35 0 54 13 46 6 -3 7
-15 4 -25z m200 0 c-4 -11 -1 -26 5 -34 10 -12 9 -15 -3 -15 -9 0 -16 12 -19
28 -5 35 0 54 13 46 6 -3 7 -15 4 -25z m-301 -5 c3 -9 -1 -14 -14 -14 -11 0
-20 -5 -20 -11 0 -6 7 -9 15 -5 8 3 15 1 15 -5 0 -18 -45 -5 -48 14 -8 39 38
57 52 21z m65 -18 c-2 -30 -2 -30 -6 -3 -2 15 -10 27 -18 27 -8 0 -16 -12 -18
-27 -4 -27 -4 -27 -6 4 -1 31 12 44 37 35 6 -2 11 -18 11 -36z m130 30 c10
-12 8 -13 -8 -9 -17 4 -21 1 -21 -17 0 -17 4 -20 21 -15 15 5 19 4 15 -4 -7
-10 -46 -16 -46 -7 0 2 -3 11 -6 19 -3 8 2 22 11 31 20 19 20 19 34 2z m71
-27 c0 -24 -4 -29 -25 -29 -31 0 -33 23 -2 38 l22 11 -25 0 c-19 1 -21 4 -11
10 23 15 41 1 41 -30z m138 -3 c-4 -24 -37 -34 -49 -14 -12 18 -11 24 7 43 20
20 46 2 42 -29z m71 -5 l-1 -26 -7 24 c-9 35 -29 37 -34 4 -4 -27 -4 -27 -6 4
0 17 5 33 12 36 19 7 37 -13 36 -42z m-682 -8 c6 -2 13 8 16 24 4 26 4 26 6
-5 1 -29 -2 -33 -21 -30 -18 2 -23 10 -25 33 -2 27 -1 28 5 6 4 -14 13 -26 19
-28z m340 0 c-3 -10 -5 -2 -5 17 0 19 2 27 5 18 2 -10 2 -26 0 -35z m200 0
c-3 -10 -5 -2 -5 17 0 19 2 27 5 18 2 -10 2 -26 0 -35z m1973 -41 c0 -15 -2
-15 -10 -2 -13 20 -13 33 0 25 6 -3 10 -14 10 -23z m36 2 c-4 -9 -9 -15 -11
-12 -3 3 -3 13 1 22 4 9 9 15 11 12 3 -3 3 -13 -1 -22z m21 -6 c-3 -7 -5 -2
-5 12 0 14 2 19 5 13 2 -7 2 -19 0 -25z m68 21 c4 -6 0 -9 -11 -7 -11 2 -18
-2 -16 -9 1 -7 -2 -13 -8 -13 -11 0 -14 23 -3 33 10 10 31 8 38 -4z m22 -21
c-3 -7 -5 -2 -5 12 0 14 2 19 5 13 2 -7 2 -19 0 -25z m50 0 c-3 -7 -5 -2 -5
12 0 14 2 19 5 13 2 -7 2 -19 0 -25z m61 -3 c-9 -9 -30 14 -23 25 6 9 10 8 17
-4 6 -10 8 -19 6 -21z m34 3 c-9 -9 -12 -7 -12 12 0 19 3 21 12 12 9 -9 9 -15
0 -24z m1416 7 c2 -18 2 -18 -8 -2 -6 9 -15 17 -20 17 -5 0 -11 -8 -13 -17 -3
-13 -5 -12 -6 5 -1 19 3 23 21 20 14 -2 24 -11 26 -23z m60 0 c3 -19 2 -19 -9
-1 -12 19 -12 19 -25 1 -13 -18 -14 -18 -14 4 0 17 5 22 22 19 14 -2 24 -11
26 -23z m72 10 c7 -9 11 -18 8 -20 -3 -3 -11 1 -18 10 -12 14 -15 14 -31 -1
-21 -19 -27 -6 -7 14 16 16 33 15 48 -3z m68 3 c20 -20 13 -32 -7 -14 -18 17
-20 17 -30 -1 -10 -17 -10 -16 -11 5 0 24 27 31 48 10z m29 -20 c-3 -7 -5 -2
-5 12 0 14 2 19 5 13 2 -7 2 -19 0 -25z m50 0 c-3 -7 -5 -2 -5 12 0 14 2 19 5
13 2 -7 2 -19 0 -25z m71 12 c4 -12 2 -13 -9 -3 -10 10 -16 9 -31 -4 -20 -18
-25 -4 -6 15 16 16 40 12 46 -8z m66 12 c-6 -4 -13 -13 -15 -20 -3 -8 -8 -5
-17 8 -11 18 -10 20 15 20 16 0 23 -4 17 -8z m1384 -17 c3 -19 2 -19 -9 -1
-12 19 -12 19 -25 1 -13 -18 -14 -18 -14 4 0 17 5 22 22 19 14 -2 24 -11 26
-23z m50 18 c-10 -2 -18 -12 -18 -21 0 -12 -3 -13 -11 -5 -16 16 -2 33 24 32
17 -1 18 -2 5 -6z m42 -26 c0 -5 -4 -5 -10 -2 -5 3 -10 14 -10 23 0 15 2 15
10 2 5 -8 10 -19 10 -23z m36 7 c-4 -9 -9 -15 -11 -12 -3 3 -3 13 1 22 4 9 9
15 11 12 3 -3 3 -13 -1 -22z m54 19 c-8 -3 -21 -12 -27 -21 -11 -14 -13 -13
-13 6 0 18 6 22 28 21 15 0 20 -3 12 -6z m50 -23 c0 -3 -7 -7 -15 -7 -8 0 -15
9 -15 20 0 16 3 17 15 7 8 -7 15 -16 15 -20z m27 -2 c-3 -7 -5 -2 -5 12 0 14
2 19 5 13 2 -7 2 -19 0 -25z m30 0 c-3 -7 -5 -2 -5 12 0 14 2 19 5 13 2 -7 2
-19 0 -25z m45 0 c-9 -9 -12 -7 -12 12 0 19 3 21 12 12 9 -9 9 -15 0 -24z m46
25 c-9 -2 -19 -12 -21 -21 -3 -12 -5 -10 -6 6 -1 17 4 22 22 21 15 -1 17 -3 5
-6z m1380 -13 c4 -12 2 -13 -9 -3 -10 10 -16 9 -31 -4 -20 -18 -25 -4 -6 15
16 16 40 12 46 -8z m62 -11 c0 -3 -7 -6 -15 -6 -15 0 -20 18 -8 30 6 7 22 -10
23 -24z m64 23 c-6 -4 -13 -13 -15 -20 -3 -9 -9 -6 -21 8 -17 19 -17 20 15 20
17 0 27 -4 21 -8z m44 1 c-9 -2 -19 -12 -21 -21 -3 -12 -5 -10 -6 6 -1 17 4
22 22 21 15 -1 17 -3 5 -6z m90 -13 c5 -13 3 -13 -12 0 -16 13 -20 12 -32 -5
-11 -15 -14 -15 -14 -4 0 9 3 19 7 23 12 11 46 2 51 -14z m72 5 c8 -9 9 -15 2
-15 -6 0 -14 5 -17 11 -5 7 -14 4 -26 -7 -20 -18 -27 -6 -7 14 16 16 33 15 48
-3z m68 -10 c2 -18 2 -18 -8 -2 -6 9 -15 17 -20 17 -5 0 -11 -8 -13 -17 -3
-13 -5 -12 -6 5 -1 19 3 23 21 20 14 -2 24 -11 26 -23z m47 8 c4 9 11 17 16
17 6 0 5 -9 -1 -20 -9 -17 -40 -29 -40 -16 0 2 -3 13 -6 23 -6 16 -5 15 9 -2
14 -19 16 -19 22 -2z m1500 6 c4 -6 0 -9 -11 -7 -13 2 -18 -2 -16 -12 3 -11 1
-12 -8 -3 -7 6 -9 16 -6 22 9 14 33 14 41 0z m49 -4 c3 8 11 15 18 15 7 0 4
-9 -9 -21 -23 -23 -43 -18 -43 9 1 16 2 15 14 -1 12 -15 14 -16 20 -2z m43
-17 c-3 -7 -5 -2 -5 12 0 14 2 19 5 13 2 -7 2 -19 0 -25z m50 0 c-3 -7 -5 -2
-5 12 0 14 2 19 5 13 2 -7 2 -19 0 -25z m-3373 -503 c-4 -8 -7 -34 -8 -57 -1
-38 -4 -42 -33 -50 -18 -5 -570 -7 -1227 -6 -938 2 -1198 6 -1207 15 -7 7 -12
31 -10 55 1 25 -3 44 -11 49 -7 5 553 9 1244 9 1112 0 1257 -2 1252 -15z"/>
<path d="M2310 8225 c0 -28 4 -35 20 -35 16 0 20 7 20 35 0 28 -4 35 -20 35
-16 0 -20 -7 -20 -35z"/>
<path d="M2420 8246 c0 -10 9 -16 21 -16 24 0 21 23 -4 28 -10 2 -17 -3 -17
-12z"/>
<path d="M2610 8185 c0 -28 4 -35 19 -35 10 0 22 7 25 16 10 26 -3 54 -25 54
-15 0 -19 -7 -19 -35z"/>
<path d="M2940 8185 c0 -32 3 -36 23 -33 17 2 22 10 22 33 0 23 -5 31 -22 33
-20 3 -23 -1 -23 -33z"/>
<path d="M2721 8161 c-8 -6 -9 -11 -3 -15 6 -3 14 -1 17 5 9 14 2 20 -14 10z"/>
<path d="M3051 8161 c-8 -6 -9 -11 -3 -15 6 -3 14 -1 17 5 9 14 2 20 -14 10z"/>
<path d="M3305 8190 c-3 -5 1 -10 9 -10 9 0 16 5 16 10 0 6 -4 10 -9 10 -6 0
-13 -4 -16 -10z"/>
<path d="M12940 8200 c0 -5 5 -10 10 -10 6 0 10 5 10 10 0 6 -4 10 -10 10 -5
0 -10 -4 -10 -10z"/>
<path d="M7875 8190 c-4 -6 -3 -16 3 -22 6 -6 12 -6 17 2 4 6 3 16 -3 22 -6 6
-12 6 -17 -2z"/>
<path d="M10030 8180 c0 -19 3 -21 12 -12 9 9 9 15 0 24 -9 9 -12 7 -12 -12z"/>
<path d="M10400 8180 c0 -19 3 -21 12 -12 9 9 9 15 0 24 -9 9 -12 7 -12 -12z"/>
<path d="M12410 8180 c0 -19 3 -21 12 -12 9 9 9 15 0 24 -9 9 -12 7 -12 -12z"/>
<path d="M12780 8180 c0 -19 3 -21 12 -12 9 9 9 15 0 24 -9 9 -12 7 -12 -12z"/>
<path d="M2420 8136 c0 -27 4 -34 18 -32 11 2 18 13 20 34 3 27 0 32 -17 32
-17 0 -21 -6 -21 -34z"/>
<path d="M2310 8116 c0 -9 7 -12 20 -9 11 3 20 9 20 14 0 5 -9 9 -20 9 -11 0
-20 -6 -20 -14z"/>
<path d="M7280 8099 c0 -5 5 -7 10 -4 6 3 10 8 10 11 0 2 -4 4 -10 4 -5 0 -10
-5 -10 -11z"/>
<path d="M7310 8100 c0 -5 5 -10 10 -10 6 0 10 5 10 10 0 6 -4 10 -10 10 -5 0
-10 -4 -10 -10z"/>
<path d="M7340 8100 c0 -5 5 -10 11 -10 5 0 7 5 4 10 -3 6 -8 10 -11 10 -2 0
-4 -4 -4 -10z"/>
<path d="M7266 8072 c-3 -6 -1 -14 5 -17 15 -10 25 3 12 16 -7 7 -13 7 -17 1z"/>
<path d="M7300 8065 c0 -8 7 -15 15 -15 8 0 15 7 15 15 0 8 -7 15 -15 15 -8 0
-15 -7 -15 -15z"/>
<path d="M7350 8065 c0 -8 5 -15 10 -15 6 0 10 7 10 15 0 8 -4 15 -10 15 -5 0
-10 -7 -10 -15z"/>
<path d="M7280 8030 c0 -5 5 -10 11 -10 5 0 7 5 4 10 -3 6 -8 10 -11 10 -2 0
-4 -4 -4 -10z"/>
<path d="M7310 8030 c0 -5 5 -10 10 -10 6 0 10 5 10 10 0 6 -4 10 -10 10 -5 0
-10 -4 -10 -10z"/>
<path d="M9636 8107 c-12 -9 -17 -23 -14 -47 2 -27 9 -37 30 -44 55 -19 93 55
46 88 -27 19 -39 20 -62 3z m42 -15 c-22 -4 -23 -18 -3 -26 17 -6 20 -32 4
-42 -6 -3 -18 2 -27 12 -16 17 -16 17 0 5 12 -9 18 -9 23 -1 4 7 -3 18 -14 27
-17 11 -19 18 -11 28 7 8 19 11 28 7 16 -6 16 -7 0 -10z"/>
<path d="M4892 8088 c-18 -18 -15 -36 7 -48 28 -15 46 -12 72 9 19 15 21 22
12 32 -16 16 -77 21 -91 7z m29 -12 c-8 -10 -9 -16 -1 -21 16 -10 32 5 25 24
-5 12 -3 13 6 4 14 -14 5 -43 -14 -43 -8 0 -20 7 -27 15 -12 15 -6 35 12 35 7
0 6 -5 -1 -14z"/>
<path d="M5460 8016 c0 -8 4 -17 9 -20 11 -7 33 18 24 27 -12 12 -33 7 -33 -7z"/>
<path d="M5455 7960 c-4 -7 -3 -16 3 -22 14 -14 45 -2 40 15 -6 16 -34 21 -43
7z"/>
<path d="M10068 8005 c-12 -27 2 -75 22 -75 20 0 34 48 22 75 -6 14 -16 25
-22 25 -6 0 -16 -11 -22 -25z"/>
<path d="M10250 8016 c0 -8 4 -17 8 -20 13 -8 35 11 28 23 -10 16 -36 14 -36
-3z"/>
<path d="M10250 7955 c-10 -12 -9 -16 5 -21 19 -8 40 9 31 25 -10 15 -21 14
-36 -4z"/>
<path d="M12354 8019 c-10 -17 13 -36 27 -22 12 12 4 33 -11 33 -5 0 -12 -5
-16 -11z"/>
<path d="M12357 7964 c-14 -15 -6 -34 14 -34 14 0 19 5 17 17 -3 18 -20 27
-31 17z"/>
<path d="M12650 8020 c0 -5 5 -10 10 -10 6 0 10 5 10 10 0 6 -4 10 -10 10 -5
0 -10 -4 -10 -10z"/>
<path d="M12731 7934 c0 -11 3 -14 6 -6 3 7 2 16 -1 19 -3 4 -6 -2 -5 -13z"/>
<path d="M11655 7240 c-3 -5 1 -10 9 -10 9 0 16 5 16 10 0 6 -4 10 -9 10 -6 0
-13 -4 -16 -10z"/>
<path d="M8520 7215 c0 -8 5 -15 10 -15 6 0 10 7 10 15 0 8 -4 15 -10 15 -5 0
-10 -7 -10 -15z"/>
<path d="M5402 7047 c-15 -17 1 -42 23 -33 18 6 17 37 -1 43 -6 2 -16 -2 -22
-10z"/>
<path d="M5530 7039 c-16 -29 -3 -79 20 -79 12 0 21 10 25 29 6 30 -8 71 -25
71 -5 0 -14 -9 -20 -21z"/>
<path d="M8486 7015 c-16 -24 -16 -25 4 -25 15 0 20 7 20 25 0 14 -2 25 -4 25
-2 0 -11 -11 -20 -25z"/>
<path d="M11804 7049 c-10 -17 13 -36 27 -22 12 12 4 33 -11 33 -5 0 -12 -5
-16 -11z"/>
<path d="M11813 6993 c-20 -7 -15 -33 6 -33 11 0 22 4 25 9 8 12 -16 29 -31
24z"/>
<path d="M11941 7001 c-17 -11 -7 -41 13 -41 22 0 30 20 15 36 -9 8 -19 10
-28 5z"/>
<path d="M3100 6830 c0 -43 9 -49 34 -24 19 18 19 20 6 45 -19 34 -40 23 -40
-21z"/>
<path d="M2783 6824 c-7 -18 11 -39 26 -30 17 11 13 46 -4 46 -9 0 -18 -7 -22
-16z"/>
<path d="M3202 6818 c2 -12 10 -23 18 -23 22 0 19 39 -3 43 -15 3 -18 -1 -15
-20z"/>
<path d="M3298 6833 c7 -3 16 -2 19 1 4 3 -2 6 -13 5 -11 0 -14 -3 -6 -6z"/>
<path d="M1350 6700 c0 -5 5 -10 10 -10 6 0 10 5 10 10 0 6 -4 10 -10 10 -5 0
-10 -4 -10 -10z"/>
<path d="M3240 6635 c0 -9 5 -15 11 -13 6 2 11 8 11 13 0 5 -5 11 -11 13 -6 2
-11 -4 -11 -13z"/>
<path d="M1160 6448 c-25 -42 -25 -50 1 -46 17 2 22 11 24 41 1 20 0 37 -2 37
-2 0 -12 -15 -23 -32z"/>
<path d="M2640 5700 c0 -25 4 -31 18 -28 11 2 17 12 17 28 0 16 -6 26 -17 28
-14 3 -18 -3 -18 -28z"/>
<path d="M2926 5703 c-12 -12 -6 -33 9 -33 8 0 15 6 15 14 0 17 -14 28 -24 19z"/>
<path d="M3164 5699 c-8 -14 11 -33 25 -25 11 7 4 36 -9 36 -5 0 -12 -5 -16
-11z"/>
<path d="M2728 5673 c7 -3 16 -2 19 1 4 3 -2 6 -13 5 -11 0 -14 -3 -6 -6z"/>
<path d="M2994 5696 c-4 -10 -2 -22 4 -28 8 -8 13 -7 18 6 4 10 2 22 -4 28 -8
8 -13 7 -18 -6z"/>
<path d="M4540 5660 c0 -5 5 -10 10 -10 6 0 10 5 10 10 0 6 -4 10 -10 10 -5 0
-10 -4 -10 -10z"/>
<path d="M9270 5660 c0 -5 7 -10 16 -10 8 0 12 5 9 10 -3 6 -10 10 -16 10 -5
0 -9 -4 -9 -10z"/>
<path d="M9740 5659 c0 -5 5 -7 10 -4 6 3 10 8 10 11 0 2 -4 4 -10 4 -5 0 -10
-5 -10 -11z"/>
<path d="M9740 5630 c0 -5 5 -10 10 -10 6 0 10 5 10 10 0 6 -4 10 -10 10 -5 0
-10 -4 -10 -10z"/>
<path d="M4602 5641 c4 -13 18 -16 19 -4 0 4 -5 9 -11 12 -7 2 -11 -2 -8 -8z"/>
<path d="M4670 5634 c0 -8 5 -12 10 -9 6 3 10 10 10 16 0 5 -4 9 -10 9 -5 0
-10 -7 -10 -16z"/>
<path d="M9340 5640 c0 -11 4 -20 9 -20 5 0 7 9 4 20 -3 11 -7 20 -9 20 -2 0
-4 -9 -4 -20z"/>
<path d="M4550 5485 c0 -10 7 -15 18 -13 21 4 19 22 -2 26 -10 2 -16 -3 -16
-13z"/>
<path d="M4550 5434 c0 -9 7 -14 17 -12 25 5 28 28 4 28 -12 0 -21 -6 -21 -16z"/>
<path d="M4877 5457 c-7 -19 8 -41 22 -33 16 10 14 46 -3 46 -8 0 -16 -6 -19
-13z"/>
<path d="M4700 5430 c0 -5 4 -10 9 -10 6 0 13 5 16 10 3 6 -1 10 -9 10 -9 0
-16 -4 -16 -10z"/>
<path d="M9390 5430 c0 -5 4 -10 9 -10 6 0 13 5 16 10 3 6 -1 10 -9 10 -9 0
-16 -4 -16 -10z"/>
<path d="M9538 5463 c7 -3 16 -2 19 1 4 3 -2 6 -13 5 -11 0 -14 -3 -6 -6z"/>
<path d="M9620 5452 c0 -10 3 -22 7 -25 10 -11 32 13 26 29 -8 20 -33 17 -33
-4z"/>
<path d="M9713 5454 c-8 -21 13 -42 28 -27 13 13 5 43 -11 43 -6 0 -13 -7 -17
-16z"/>
<path d="M2640 5245 c0 -8 7 -15 15 -15 8 0 15 7 15 15 0 8 -7 15 -15 15 -8 0
-15 -7 -15 -15z"/>
<path d="M2822 5223 c5 -25 28 -28 28 -4 0 12 -6 21 -16 21 -9 0 -14 -7 -12
-17z"/>
<path d="M2755 5230 c-7 -12 2 -30 16 -30 5 0 9 9 9 20 0 21 -15 27 -25 10z"/>
<path d="M2380 5185 c0 -8 7 -15 15 -15 8 0 15 7 15 15 0 8 -7 15 -15 15 -8 0
-15 -7 -15 -15z"/>
<path d="M2467 5204 c-14 -14 -7 -35 11 -32 9 2 17 10 17 17 0 16 -18 25 -28
15z"/>
<path d="M6820 5080 c0 -5 7 -10 16 -10 8 0 12 5 9 10 -3 6 -10 10 -16 10 -5
0 -9 -4 -9 -10z"/>
<path d="M7075 5061 c-6 -11 9 -23 19 -14 9 9 7 23 -3 23 -6 0 -12 -4 -16 -9z"/>
<path d="M13570 4900 c0 -11 6 -20 14 -20 21 0 31 21 15 31 -22 14 -29 11 -29
-11z"/>
<path d="M13100 4880 c0 -5 7 -10 15 -10 8 0 15 5 15 10 0 6 -7 10 -15 10 -8
0 -15 -4 -15 -10z"/>
<path d="M13665 4880 c-3 -5 3 -10 15 -10 12 0 18 5 15 10 -3 6 -10 10 -15 10
-5 0 -12 -4 -15 -10z"/>
<path d="M14170 4865 c0 -16 6 -25 15 -25 9 0 15 9 15 25 0 16 -6 25 -15 25
-9 0 -15 -9 -15 -25z"/>
<path d="M2422 4799 c2 -6 8 -10 13 -10 5 0 11 4 13 10 2 6 -4 11 -13 11 -9 0
-15 -5 -13 -11z"/>
<path d="M2790 4770 c0 -5 5 -10 10 -10 6 0 10 5 10 10 0 6 -4 10 -10 10 -5 0
-10 -4 -10 -10z"/>
<path d="M2395 4730 c-4 -6 12 -10 40 -10 28 0 44 4 40 10 -3 6 -21 10 -40 10
-19 0 -37 -4 -40 -10z"/>
<path d="M4900 4676 c0 -19 5 -38 10 -41 6 -3 10 -14 10 -23 0 -15 -2 -15 -10
-2 -7 10 -9 -11 -8 -67 0 -46 4 -83 8 -83 4 0 7 -7 7 -15 0 -8 -4 -12 -9 -9
-4 3 -8 -15 -8 -40 0 -25 4 -48 10 -51 5 -3 8 0 7 7 -2 7 1 3 7 -9 5 -13 13
-23 18 -23 13 0 9 38 -4 43 -10 4 -10 6 0 6 6 1 12 10 12 20 0 11 -6 22 -12
24 -10 4 -10 6 0 6 15 1 18 231 3 231 -6 0 -6 12 -1 30 8 27 7 30 -16 30 -21
0 -24 -5 -24 -34z m30 -112 c0 -8 -4 -14 -9 -14 -6 0 -9 9 -8 19 1 22 17 18
17 -5z"/>
<path d="M4900 4310 c0 -21 8 -24 34 -14 15 6 15 8 -1 20 -25 19 -33 17 -33
-6z"/>
<path d="M4915 4280 c-17 -7 -17 -9 -2 -9 21 -1 23 -21 2 -21 -22 0 -18 -15 4
-17 12 -1 21 7 25 20 11 40 8 43 -29 27z"/>
<path d="M7245 3260 c-19 -8 -19 -9 3 -9 12 -1 22 4 22 9 0 6 -1 10 -2 9 -2 0
-12 -4 -23 -9z"/>
<path d="M6140 3260 c0 -5 5 -10 11 -10 5 0 7 5 4 10 -3 6 -8 10 -11 10 -2 0
-4 -4 -4 -10z"/>
<path d="M8160 4401 l0 -217 25 -2 25 -2 0 218 0 217 -25 1 -25 2 0 -217z m40
170 c0 -6 -4 -13 -10 -16 -5 -3 -10 1 -10 9 0 9 5 16 10 16 6 0 10 -4 10 -9z
m0 -61 c0 -5 -4 -10 -10 -10 -5 0 -10 5 -10 10 0 6 5 10 10 10 6 0 10 -4 10
-10z m0 -30 c0 -5 -4 -10 -10 -10 -5 0 -10 5 -10 10 0 6 5 10 10 10 6 0 10 -4
10 -10z m-4 -155 c1 -15 -2 -25 -8 -23 -5 2 -9 7 -9 11 1 4 1 14 1 22 0 26 15
16 16 -10z m0 -77 c-3 -13 -5 -25 -5 -28 -1 -3 -5 1 -10 9 -6 9 -5 19 2 27 16
18 17 17 13 -8z m-1 -48 c3 -5 2 -10 -4 -10 -5 0 -13 5 -16 10 -3 6 -2 10 4
10 5 0 13 -4 16 -10z"/>
<path d="M14450 4460 c0 -5 7 -10 15 -10 8 0 15 5 15 10 0 6 -7 10 -15 10 -8
0 -15 -4 -15 -10z"/>
<path d="M5990 4440 c0 -11 2 -20 4 -20 2 0 11 -3 20 -6 12 -5 16 0 16 20 0
19 -5 26 -20 26 -13 0 -20 -7 -20 -20z"/>
<path d="M5990 4391 c0 -11 6 -22 13 -24 10 -4 10 -6 0 -6 -19 -1 -16 -58 3
-65 24 -9 24 -9 24 39 0 25 -4 45 -10 45 -5 0 -10 7 -10 15 0 8 -4 15 -10 15
-5 0 -10 -9 -10 -19z"/>
<path d="M5990 4271 c0 -11 6 -22 13 -24 10 -4 10 -6 0 -6 -9 -1 -13 -25 -13
-87 0 -76 2 -85 18 -82 14 3 17 14 17 66 1 34 -3 62 -7 62 -4 0 -8 7 -8 16 0
8 5 12 10 9 6 -4 10 5 10 20 0 15 -4 24 -10 20 -5 -3 -10 1 -10 9 0 9 -4 16
-10 16 -5 0 -10 -9 -10 -19z"/>
<path d="M14880 4446 c0 -9 5 -16 10 -16 6 0 10 4 10 9 0 6 -4 13 -10 16 -5 3
-10 -1 -10 -9z"/>
<path d="M2396 4349 c-48 -38 -24 -109 37 -109 32 0 67 32 67 60 0 24 -42 70
-63 70 -8 0 -26 -9 -41 -21z m55 -5 c12 -15 11 -16 -9 -10 -16 5 -22 3 -22 -7
0 -8 9 -17 20 -20 24 -6 27 -42 4 -51 -17 -7 -34 0 -34 14 0 4 9 6 20 3 11 -3
20 0 20 5 0 6 -9 16 -20 22 -23 12 -26 30 -8 48 15 15 13 15 29 -4z"/>
<path d="M2640 4315 c0 -8 7 -15 15 -15 8 0 15 7 15 15 0 8 -7 15 -15 15 -8 0
-15 -7 -15 -15z"/>
<path d="M2942 4293 c5 -25 28 -28 28 -4 0 12 -6 21 -16 21 -9 0 -14 -7 -12
-17z"/>
<path d="M8328 3253 c6 -2 18 -2 25 0 6 3 1 5 -13 5 -14 0 -19 -2 -12 -5z"/>
<path d="M7090 4275 c0 -8 -4 -15 -10 -15 -5 0 -10 -9 -10 -21 0 -12 4 -17 11
-13 7 4 7 -1 -1 -15 -9 -18 -9 -26 2 -38 10 -13 10 -17 1 -20 -7 -3 -13 -12
-13 -20 0 -10 6 -13 16 -9 9 3 20 6 25 6 5 0 9 24 9 54 0 44 -4 55 -17 59 -17
4 -17 5 0 6 21 1 24 41 2 41 -8 0 -15 -7 -15 -15z"/>
<path d="M7083 4105 c-7 -8 -13 -24 -13 -35 0 -20 1 -21 25 -3 26 19 34 53 13
53 -7 -1 -19 -7 -25 -15z"/>
<path d="M7090 4046 c0 -8 -6 -16 -12 -19 -10 -3 -10 -7 1 -20 7 -9 10 -24 7
-33 -5 -14 -4 -15 8 -5 11 9 15 9 19 -1 3 -7 6 -1 6 14 1 17 -5 28 -16 31 -17
4 -17 5 0 6 21 1 24 41 2 41 -8 0 -15 -6 -15 -14z"/>
<path d="M15100 4129 c0 -5 5 -7 10 -4 6 3 10 8 10 11 0 2 -4 4 -10 4 -5 0
-10 -5 -10 -11z"/>
<path d="M15100 4099 c0 -5 5 -7 10 -4 6 3 10 8 10 11 0 2 -4 4 -10 4 -5 0
-10 -5 -10 -11z"/>
<path d="M2350 3840 c0 -47 11 -63 25 -40 9 15 61 12 75 -5 7 -8 23 -15 36
-15 22 0 24 4 24 55 l0 55 -80 0 -80 0 0 -50z m150 32 c0 -4 -6 -14 -12 -20
-10 -10 -10 -17 1 -33 10 -18 10 -20 -1 -17 -14 5 -23 41 -14 64 6 15 26 20
26 6z m-72 -29 c-2 -10 -10 -18 -18 -18 -8 0 -16 8 -18 18 -2 12 3 17 18 17
15 0 20 -5 18 -17z"/>
<path d="M2400 3839 c0 -5 5 -7 10 -4 6 3 10 8 10 11 0 2 -4 4 -10 4 -5 0 -10
-5 -10 -11z"/>
<path d="M2389 3789 c-10 -6 -7 -9 14 -9 29 0 35 5 14 13 -8 3 -20 1 -28 -4z"/>
<path d="M2724 3835 c-7 -17 4 -37 17 -30 12 8 12 45 -1 45 -6 0 -13 -7 -16
-15z"/>
<path d="M2905 3810 c4 -6 11 -8 16 -5 14 9 11 15 -7 15 -8 0 -12 -5 -9 -10z"/>
<path d="M13855 3640 c-3 -5 1 -10 10 -10 9 0 13 5 10 10 -3 6 -8 10 -10 10
-2 0 -7 -4 -10 -10z"/>
<path d="M1190 3579 c0 -5 5 -7 10 -4 6 3 10 8 10 11 0 2 -4 4 -10 4 -5 0 -10
-5 -10 -11z"/>
<path d="M1190 3550 c0 -5 5 -10 10 -10 6 0 10 5 10 10 0 6 -4 10 -10 10 -5 0
-10 -4 -10 -10z"/>
<path d="M1270 3401 c-11 -22 -5 -47 14 -54 27 -11 50 26 34 56 -12 23 -35 22
-48 -2z"/>
<path d="M1480 3380 c0 -43 2 -45 31 -30 21 12 25 40 7 58 -24 24 -38 13 -38
-28z"/>
<path d="M1145 3390 c-3 -5 1 -10 10 -10 9 0 13 5 10 10 -3 6 -8 10 -10 10 -2
0 -7 -4 -10 -10z"/>
<path d="M1580 3350 c0 -5 4 -10 9 -10 6 0 13 5 16 10 3 6 -1 10 -9 10 -9 0
-16 -4 -16 -10z"/>
<path d="M11894 3255 c-4 -9 -2 -21 4 -27 15 -15 44 -1 40 19 -4 23 -36 29
-44 8z"/>
<path d="M12032 3270 c-10 -16 -10 -20 2 -20 7 0 16 9 19 20 3 11 2 20 -2 20
-3 0 -12 -9 -19 -20z"/>
<path d="M10137 3276 c-7 -17 18 -40 33 -31 5 3 10 15 10 26 0 23 -35 27 -43
5z"/>
<path d="M10620 3280 c0 -5 5 -10 10 -10 6 0 10 5 10 10 0 6 -4 10 -10 10 -5
0 -10 -4 -10 -10z"/>
<path d="M10750 3254 c0 -8 5 -12 10 -9 6 3 10 10 10 16 0 5 -4 9 -10 9 -5 0
-10 -7 -10 -16z"/>
<path d="M10882 3260 c0 -14 2 -19 5 -12 2 6 2 18 0 25 -3 6 -5 1 -5 -13z"/>
<path d="M12064 3015 c-4 -9 -2 -21 4 -27 15 -15 44 -1 40 19 -4 23 -36 29
-44 8z"/>
<path d="M10402 2969 c2 -6 8 -10 13 -10 5 0 11 4 13 10 2 6 -4 11 -13 11 -9
0 -15 -5 -13 -11z"/>
<path d="M10510 2965 c0 -8 5 -15 10 -15 6 0 10 7 10 15 0 8 -4 15 -10 15 -5
0 -10 -7 -10 -15z"/>
<path d="M10572 2971 c2 -7 7 -12 11 -12 12 1 9 15 -3 20 -7 2 -11 -2 -8 -8z"/>
<path d="M2100 2715 c0 -13 26 -15 170 -15 144 0 170 2 170 15 0 13 -26 15
-170 15 -144 0 -170 -2 -170 -15z"/>
<path d="M10405 2681 c-6 -11 9 -23 19 -14 9 9 7 23 -3 23 -6 0 -12 -4 -16 -9z"/>
<path d="M7195 2580 c4 -6 11 -8 16 -5 14 9 11 15 -7 15 -8 0 -12 -5 -9 -10z"/>
<path d="M4946 2571 c-4 -5 -2 -12 3 -15 5 -4 12 -2 15 3 4 5 2 12 -3 15 -5 4
-12 2 -15 -3z"/>
<path d="M5006 2571 c-4 -7 -5 -15 -2 -18 9 -9 19 4 14 18 -4 11 -6 11 -12 0z"/>
<path d="M6080 2565 c0 -8 5 -15 10 -15 6 0 10 7 10 15 0 8 -4 15 -10 15 -5 0
-10 -7 -10 -15z"/>
<path d="M6190 2566 c0 -9 5 -16 10 -16 6 0 10 4 10 9 0 6 -4 13 -10 16 -5 3
-10 -1 -10 -9z"/>
<path d="M8186 2571 c-4 -7 -5 -15 -2 -18 9 -9 19 4 14 18 -4 11 -6 11 -12 0z"/>
<path d="M8240 2565 c0 -8 5 -15 10 -15 6 0 10 7 10 15 0 8 -4 15 -10 15 -5 0
-10 -7 -10 -15z"/>
<path d="M8300 2564 c0 -8 5 -12 10 -9 6 4 8 11 5 16 -9 14 -15 11 -15 -7z"/>
<path d="M4596 1952 c-3 -6 -1 -14 5 -17 15 -10 25 3 12 16 -7 7 -13 7 -17 1z"/>
<path d="M4555 1781 c-3 -5 -1 -12 5 -16 5 -3 10 1 10 9 0 18 -6 21 -15 7z"/>
<path d="M4803 1758 c-21 -28 -24 -38 -10 -38 8 0 17 11 19 25 6 28 4 30 -9
13z"/>
<path d="M5344 1779 c-10 -17 23 -46 37 -32 7 7 9 19 6 27 -7 18 -33 21 -43 5z"/>
<path d="M5526 1775 c-11 -29 -7 -62 9 -75 23 -19 37 0 33 46 -3 41 -30 59
-42 29z"/>
<path d="M5658 1765 c-12 -27 2 -75 22 -75 18 0 32 52 21 77 -14 30 -29 29
-43 -2z"/>
<path d="M2421 1686 c-8 -9 -19 -16 -25 -16 -7 0 -12 -15 -12 -34 0 -19 3 -33
8 -30 4 3 15 -4 25 -15 16 -20 17 -20 30 -1 8 11 19 17 27 14 9 -3 12 5 12 31
-1 26 -5 35 -18 35 -9 0 -21 7 -26 16 -8 14 -10 14 -21 0z m35 -37 c10 -17
-23 -46 -37 -32 -7 7 -9 19 -6 27 7 18 33 21 43 5z"/>
<path d="M2426 1641 c-4 -5 -2 -12 3 -15 5 -4 12 -2 15 3 4 5 2 12 -3 15 -5 4
-12 2 -15 -3z"/>
<path d="M2715 1640 c-3 -5 1 -10 10 -10 9 0 13 5 10 10 -3 6 -8 10 -10 10 -2
0 -7 -4 -10 -10z"/>
<path d="M2966 1643 c-12 -12 -6 -33 9 -33 8 0 15 6 15 14 0 17 -14 28 -24 19z"/>
<path d="M2387 1193 c-25 -24 10 -66 37 -44 7 6 32 12 55 13 52 2 54 18 2 18
-22 0 -43 5 -46 10 -7 11 -38 13 -48 3z m33 -24 c0 -5 -7 -9 -15 -9 -15 0 -20
12 -9 23 8 8 24 -1 24 -14z"/>
<path d="M2671 1174 c0 -11 3 -14 6 -6 3 7 2 16 -1 19 -3 4 -6 -2 -5 -13z"/>
<path d="M2918 1173 c7 -3 16 -2 19 1 4 3 -2 6 -13 5 -11 0 -14 -3 -6 -6z"/>
<path d="M3185 1150 c-3 -5 1 -10 9 -10 9 0 16 5 16 10 0 6 -4 10 -9 10 -6 0
-13 -4 -16 -10z"/>
<path d="M3320 1160 c0 -11 7 -20 15 -20 8 0 15 9 15 20 0 11 -7 20 -15 20 -8
0 -15 -9 -15 -20z"/>
<path d="M5548 9103 c7 -3 16 -2 19 1 4 3 -2 6 -13 5 -11 0 -14 -3 -6 -6z"/>
<path d="M5628 9103 c6 -2 18 -2 25 0 6 3 1 5 -13 5 -14 0 -19 -2 -12 -5z"/>
<path d="M5798 9103 c6 -2 18 -2 25 0 6 3 1 5 -13 5 -14 0 -19 -2 -12 -5z"/>
<path d="M6008 9103 c7 -3 16 -2 19 1 4 3 -2 6 -13 5 -11 0 -14 -3 -6 -6z"/>
<path d="M6208 9103 c6 -2 18 -2 25 0 6 3 1 5 -13 5 -14 0 -19 -2 -12 -5z"/>
<path d="M6673 9103 c9 -2 23 -2 30 0 6 3 -1 5 -18 5 -16 0 -22 -2 -12 -5z"/>
<path d="M6828 9103 c7 -3 16 -2 19 1 4 3 -2 6 -13 5 -11 0 -14 -3 -6 -6z"/>
<path d="M6913 9103 c9 -2 23 -2 30 0 6 3 -1 5 -18 5 -16 0 -22 -2 -12 -5z"/>
<path d="M7008 9103 c7 -3 16 -2 19 1 4 3 -2 6 -13 5 -11 0 -14 -3 -6 -6z"/>
<path d="M7233 9103 c9 -2 23 -2 30 0 6 3 -1 5 -18 5 -16 0 -22 -2 -12 -5z"/>
<path d="M7293 9103 c9 -2 23 -2 30 0 6 3 -1 5 -18 5 -16 0 -22 -2 -12 -5z"/>
<path d="M7368 9103 c7 -3 16 -2 19 1 4 3 -2 6 -13 5 -11 0 -14 -3 -6 -6z"/>
<path d="M7538 9103 c6 -2 18 -2 25 0 6 3 1 5 -13 5 -14 0 -19 -2 -12 -5z"/>
<path d="M7588 9103 c7 -3 16 -2 19 1 4 3 -2 6 -13 5 -11 0 -14 -3 -6 -6z"/>
<path d="M7733 9103 c9 -2 23 -2 30 0 6 3 -1 5 -18 5 -16 0 -22 -2 -12 -5z"/>
<path d="M7938 9103 c7 -3 16 -2 19 1 4 3 -2 6 -13 5 -11 0 -14 -3 -6 -6z"/>
<path d="M8018 9103 c7 -3 16 -2 19 1 4 3 -2 6 -13 5 -11 0 -14 -3 -6 -6z"/>
<path d="M8188 9103 c7 -3 16 -2 19 1 4 3 -2 6 -13 5 -11 0 -14 -3 -6 -6z"/>
<path d="M8398 9103 c7 -3 16 -2 19 1 4 3 -2 6 -13 5 -11 0 -14 -3 -6 -6z"/>
<path d="M8598 9103 c6 -2 18 -2 25 0 6 3 1 5 -13 5 -14 0 -19 -2 -12 -5z"/>
<path d="M9078 9103 c7 -3 16 -2 19 1 4 3 -2 6 -13 5 -11 0 -14 -3 -6 -6z"/>
<path d="M9318 9103 c7 -3 16 -2 19 1 4 3 -2 6 -13 5 -11 0 -14 -3 -6 -6z"/>
<path d="M9398 9103 c7 -3 16 -2 19 1 4 3 -2 6 -13 5 -11 0 -14 -3 -6 -6z"/>
<path d="M9678 9103 c6 -2 18 -2 25 0 6 3 1 5 -13 5 -14 0 -19 -2 -12 -5z"/>
<path d="M9748 9103 c7 -3 16 -2 19 1 4 3 -2 6 -13 5 -11 0 -14 -3 -6 -6z"/>
<path d="M9928 9103 c6 -2 18 -2 25 0 6 3 1 5 -13 5 -14 0 -19 -2 -12 -5z"/>
<path d="M9978 9103 c7 -3 16 -2 19 1 4 3 -2 6 -13 5 -11 0 -14 -3 -6 -6z"/>
<path d="M10088 9103 c6 -2 18 -2 25 0 6 3 1 5 -13 5 -14 0 -19 -2 -12 -5z"/>
<path d="M10138 9103 c6 -2 18 -2 25 0 6 3 1 5 -13 5 -14 0 -19 -2 -12 -5z"/>
<path d="M10318 9103 c6 -2 18 -2 25 0 6 3 1 5 -13 5 -14 0 -19 -2 -12 -5z"/>
<path d="M10408 9103 c7 -3 16 -2 19 1 4 3 -2 6 -13 5 -11 0 -14 -3 -6 -6z"/>
<path d="M10578 9103 c7 -3 16 -2 19 1 4 3 -2 6 -13 5 -11 0 -14 -3 -6 -6z"/>
<path d="M10888 9103 c7 -3 16 -2 19 1 4 3 -2 6 -13 5 -11 0 -14 -3 -6 -6z"/>
<path d="M10988 9103 c6 -2 18 -2 25 0 6 3 1 5 -13 5 -14 0 -19 -2 -12 -5z"/>
<path d="M11448 9103 c6 -2 18 -2 25 0 6 3 1 5 -13 5 -14 0 -19 -2 -12 -5z"/>
<path d="M11688 9103 c6 -2 18 -2 25 0 6 3 1 5 -13 5 -14 0 -19 -2 -12 -5z"/>
<path d="M11898 9103 c6 -2 18 -2 25 0 6 3 1 5 -13 5 -14 0 -19 -2 -12 -5z"/>
<path d="M12003 9103 c9 -2 25 -2 35 0 9 3 1 5 -18 5 -19 0 -27 -2 -17 -5z"/>
<path d="M12068 9103 c6 -2 18 -2 25 0 6 3 1 5 -13 5 -14 0 -19 -2 -12 -5z"/>
<path d="M12138 9103 c7 -3 16 -2 19 1 4 3 -2 6 -13 5 -11 0 -14 -3 -6 -6z"/>
<path d="M12308 9103 c6 -2 18 -2 25 0 6 3 1 5 -13 5 -14 0 -19 -2 -12 -5z"/>
<path d="M12368 9103 c7 -3 16 -2 19 1 4 3 -2 6 -13 5 -11 0 -14 -3 -6 -6z"/>
<path d="M12478 9103 c6 -2 18 -2 25 0 6 3 1 5 -13 5 -14 0 -19 -2 -12 -5z"/>
<path d="M12708 9103 c7 -3 16 -2 19 1 4 3 -2 6 -13 5 -11 0 -14 -3 -6 -6z"/>
<path d="M12788 9103 c6 -2 18 -2 25 0 6 3 1 5 -13 5 -14 0 -19 -2 -12 -5z"/>
<path d="M12958 9103 c6 -2 18 -2 25 0 6 3 1 5 -13 5 -14 0 -19 -2 -12 -5z"/>
<path d="M13273 9103 c9 -2 25 -2 35 0 9 3 1 5 -18 5 -19 0 -27 -2 -17 -5z"/>
<path d="M13368 9103 c6 -2 18 -2 25 0 6 3 1 5 -13 5 -14 0 -19 -2 -12 -5z"/>
<path d="M13833 9103 c9 -2 25 -2 35 0 9 3 1 5 -18 5 -19 0 -27 -2 -17 -5z"/>
<path d="M13903 9103 c9 -2 23 -2 30 0 6 3 -1 5 -18 5 -16 0 -22 -2 -12 -5z"/>
<path d="M1975 9080 c4 -6 11 -8 16 -5 14 9 11 15 -7 15 -8 0 -12 -5 -9 -10z"/>
<path d="M14030 9069 c0 -5 5 -7 10 -4 6 3 10 8 10 11 0 2 -4 4 -10 4 -5 0
-10 -5 -10 -11z"/>
<path d="M1865 9030 c-3 -5 -1 -10 4 -10 6 0 11 5 11 10 0 6 -2 10 -4 10 -3 0
-8 -4 -11 -10z"/>
<path d="M14133 9017 c0 -8 6 -14 14 -14 9 0 10 4 2 14 -6 7 -12 13 -14 13 -1
0 -2 -6 -2 -13z"/>
<path d="M1819 8993 l-24 -28 28 24 c25 23 32 31 24 31 -2 0 -14 -12 -28 -27z"/>
<path d="M14180 8971 c0 -5 7 -12 16 -15 14 -5 15 -4 4 9 -14 17 -20 19 -20 6z"/>
<path d="M1690 8529 c0 -5 5 -7 10 -4 6 3 10 8 10 11 0 2 -4 4 -10 4 -5 0 -10
-5 -10 -11z"/>
<path d="M1691 8344 c0 -11 3 -14 6 -6 3 7 2 16 -1 19 -3 4 -6 -2 -5 -13z"/>
<path d="M1692 8260 c0 -19 2 -27 5 -17 2 9 2 25 0 35 -3 9 -5 1 -5 -18z"/>
<path d="M14291 8094 c0 -11 3 -14 6 -6 3 7 2 16 -1 19 -3 4 -6 -2 -5 -13z"/>
<path d="M1692 8040 c0 -14 2 -19 5 -12 2 6 2 18 0 25 -3 6 -5 1 -5 -13z"/>
<path d="M1690 7919 c0 -5 5 -7 10 -4 6 3 10 8 10 11 0 2 -4 4 -10 4 -5 0 -10
-5 -10 -11z"/>
<path d="M14286 7693 c-6 -14 -5 -15 5 -6 7 7 10 15 7 18 -3 3 -9 -2 -12 -12z"/>
<path d="M14291 7474 c0 -11 3 -14 6 -6 3 7 2 16 -1 19 -3 4 -6 -2 -5 -13z"/>
<path d="M14291 7134 c0 -11 3 -14 6 -6 3 7 2 16 -1 19 -3 4 -6 -2 -5 -13z"/>
<path d="M14292 7090 c0 -14 2 -19 5 -12 2 6 2 18 0 25 -3 6 -5 1 -5 -13z"/>
<path d="M14291 6964 c0 -11 3 -14 6 -6 3 7 2 16 -1 19 -3 4 -6 -2 -5 -13z"/>
<path d="M14289 6548 c-3 -22 -1 -34 4 -29 5 5 7 21 5 37 -3 27 -4 26 -9 -8z"/>
<path d="M14291 6434 c0 -11 3 -14 6 -6 3 7 2 16 -1 19 -3 4 -6 -2 -5 -13z"/>
<path d="M14291 6064 c0 -11 3 -14 6 -6 3 7 2 16 -1 19 -3 4 -6 -2 -5 -13z"/>
<path d="M14285 5950 c3 -5 8 -10 11 -10 2 0 4 5 4 10 0 6 -5 10 -11 10 -5 0
-7 -4 -4 -10z"/>
<path d="M14291 5704 c0 -11 3 -14 6 -6 3 7 2 16 -1 19 -3 4 -6 -2 -5 -13z"/>
<path d="M1690 5249 c0 -5 5 -7 10 -4 6 3 10 8 10 11 0 2 -4 4 -10 4 -5 0 -10
-5 -10 -11z"/>
<path d="M1690 5211 c0 -6 4 -12 8 -15 5 -3 9 1 9 9 0 8 -4 15 -9 15 -4 0 -8
-4 -8 -9z"/>
<path d="M1690 5091 c0 -25 6 -27 13 -6 4 8 2 17 -3 20 -6 4 -10 -3 -10 -14z"/>
<path d="M1690 4954 c0 -8 5 -12 10 -9 6 4 8 11 5 16 -9 14 -15 11 -15 -7z"/>
<path d="M1690 4896 c0 -14 4 -27 8 -30 5 -3 6 8 4 25 -5 35 -12 38 -12 5z"/>
<path d="M1690 4814 c0 -8 5 -12 10 -9 6 3 10 10 10 16 0 5 -4 9 -10 9 -5 0
-10 -7 -10 -16z"/>
<path d="M1693 4675 c-3 -9 -3 -18 -1 -21 3 -3 8 4 11 16 6 23 -1 27 -10 5z"/>
<path d="M1697 4623 c-4 -3 -7 -11 -7 -17 0 -6 5 -5 12 2 6 6 9 14 7 17 -3 3
-9 2 -12 -2z"/>
<path d="M1695 4579 c-4 -6 -5 -12 -2 -15 2 -3 7 2 10 11 7 17 1 20 -8 4z"/>
<path d="M1693 4525 c-3 -9 -3 -18 -1 -21 3 -3 8 4 11 16 6 23 -1 27 -10 5z"/>
<path d="M1690 4446 c0 -31 6 -34 13 -6 3 11 1 23 -4 26 -5 3 -9 -6 -9 -20z"/>
<path d="M1691 4394 c0 -11 3 -14 6 -6 3 7 2 16 -1 19 -3 4 -6 -2 -5 -13z"/>
<path d="M1690 4211 c0 -6 4 -13 10 -16 6 -3 7 1 4 9 -7 18 -14 21 -14 7z"/>
<path d="M1693 4098 c-2 -16 1 -18 10 -9 7 7 8 14 1 21 -6 6 -10 2 -11 -12z"/>
<path d="M1690 4034 c0 -8 5 -12 10 -9 6 4 8 11 5 16 -9 14 -15 11 -15 -7z"/>
<path d="M1691 3964 c0 -11 3 -14 6 -6 3 7 2 16 -1 19 -3 4 -6 -2 -5 -13z"/>
<path d="M1690 3896 c0 -9 5 -16 10 -16 6 0 10 4 10 9 0 6 -4 13 -10 16 -5 3
-10 -1 -10 -9z"/>
<path d="M14285 2826 c0 -13 3 -22 8 -19 4 2 7 13 7 24 0 10 -3 19 -7 19 -5 0
-8 -11 -8 -24z"/>
<path d="M14291 2704 c0 -11 3 -14 6 -6 3 7 2 16 -1 19 -3 4 -6 -2 -5 -13z"/>
<path d="M14291 2444 c0 -11 3 -14 6 -6 3 7 2 16 -1 19 -3 4 -6 -2 -5 -13z"/>
<path d="M14285 2400 c-3 -5 -1 -10 4 -10 6 0 11 5 11 10 0 6 -2 10 -4 10 -3
0 -8 -4 -11 -10z"/>
<path d="M14292 2320 c0 -14 2 -19 5 -12 2 6 2 18 0 25 -3 6 -5 1 -5 -13z"/>
<path d="M14291 2264 c0 -11 3 -14 6 -6 3 7 2 16 -1 19 -3 4 -6 -2 -5 -13z"/>
<path d="M14291 2194 c0 -11 3 -14 6 -6 3 7 2 16 -1 19 -3 4 -6 -2 -5 -13z"/>
<path d="M14292 1775 c0 -16 2 -22 5 -12 2 9 2 23 0 30 -3 6 -5 -1 -5 -18z"/>
<path d="M1690 1716 c0 -9 5 -16 10 -16 6 0 10 4 10 9 0 6 -4 13 -10 16 -5 3
-10 -1 -10 -9z"/>
<path d="M14291 1664 c0 -11 3 -14 6 -6 3 7 2 16 -1 19 -3 4 -6 -2 -5 -13z"/>
<path d="M1691 1574 c0 -11 3 -14 6 -6 3 7 2 16 -1 19 -3 4 -6 -2 -5 -13z"/>
<path d="M1690 1497 c0 -14 4 -28 8 -31 9 -5 8 41 -1 51 -4 3 -7 -5 -7 -20z"/>
<path d="M1691 1414 c0 -11 3 -14 6 -6 3 7 2 16 -1 19 -3 4 -6 -2 -5 -13z"/>
<path d="M1690 1370 c0 -5 5 -10 10 -10 6 0 10 5 10 10 0 6 -4 10 -10 10 -5 0
-10 -4 -10 -10z"/>
<path d="M14291 1294 c0 -11 3 -14 6 -6 3 7 2 16 -1 19 -3 4 -6 -2 -5 -13z"/>
<path d="M1691 1184 c0 -11 3 -14 6 -6 3 7 2 16 -1 19 -3 4 -6 -2 -5 -13z"/>
<path d="M14285 1180 c3 -5 8 -10 11 -10 2 0 4 5 4 10 0 6 -5 10 -11 10 -5 0
-7 -4 -4 -10z"/>
<path d="M1691 884 c0 -11 3 -14 6 -6 3 7 2 16 -1 19 -3 4 -6 -2 -5 -13z"/>
<path d="M1720 630 c0 -5 5 -10 11 -10 5 0 7 5 4 10 -3 6 -8 10 -11 10 -2 0
-4 -4 -4 -10z"/>
</g>
</svg>
